<?xml version="1.0" encoding="UTF-8"?>
<svg version="1.1" xmlns="http://www.w3.org/2000/svg" width="1280" height="698">
<path d="M0 0 C4.22963967 0.88921489 7.29948967 3.01689214 10.8125 5.4375 C12.16656603 6.35561719 13.52073549 7.27358185 14.875 8.19140625 C15.90753906 8.89547607 15.90753906 8.89547607 16.9609375 9.61376953 C20.063445 11.72296943 23.18819701 13.79828953 26.3125 15.875 C27.56390122 16.70948677 28.81520129 17.54412524 30.06640625 18.37890625 C32.80128818 20.20239102 35.53866801 22.02206235 38.27734375 23.83984375 C47.00164774 29.63556907 55.67656423 35.49730331 64.31323242 41.42285156 C70.50650577 45.669887 76.73974465 49.85229064 83 54 C100.59788037 65.67437053 100.59788037 65.67437053 108.4921875 71.25390625 C111.57170006 73.39805285 114.68860531 75.48388951 117.8125 77.5625 C118.74352539 78.18233765 118.74352539 78.18233765 119.69335938 78.81469727 C123.52720078 81.36378384 127.36777144 83.90249663 131.2109375 86.4375 C168.03668722 110.77468931 195.18716629 137.05325411 205.74609375 181.11328125 C208.66682316 196.32121714 208.29084598 213.86907324 205 229 C204.85997559 229.66596191 204.71995117 230.33192383 204.57568359 231.01806641 C198.78525426 257.58910195 182.1539893 281.14702927 161 298 C159.91332031 298.86625 159.91332031 298.86625 158.8046875 299.75 C153.31510417 304 153.31510417 304 151 304 C151 304.66 151 305.32 151 306 C148.89980986 307.47309111 146.82232271 308.81309635 144.625 310.125 C144.02171875 310.49753906 143.4184375 310.87007812 142.796875 311.25390625 C138.27034684 314 138.27034684 314 136 314 C137.35657308 310.32539914 139.04752796 307.1892926 141.125 303.875 C147.82387204 292.53736928 153.2239143 279.89197374 156 267 C156.19078125 266.19949219 156.3815625 265.39898437 156.578125 264.57421875 C158.09715889 257.77111698 158.64503758 250.95206893 159 244 C159.06380859 242.80310547 159.06380859 242.80310547 159.12890625 241.58203125 C159.69888756 219.5047553 153.47798462 199.20406861 143.35546875 179.80078125 C142 177 142 177 142 175 C141.34 175 140.68 175 140 175 C138.703125 173.27734375 138.703125 173.27734375 137.25 170.9375 C134.80291863 167.11619559 132.1743866 163.74298854 129.1015625 160.41015625 C128 159 128 159 128 157 C127.34 157 126.68 157 126 157 C124.31066078 155.3563186 122.64740076 153.6857124 121 152 C120.071875 151.278125 119.14375 150.55625 118.1875 149.8125 C117.465625 149.214375 116.74375 148.61625 116 148 C116 147.34 116 146.68 116 146 C115.46375 145.75507813 114.9275 145.51015625 114.375 145.2578125 C111.40541721 143.68510582 108.74867122 141.80850157 106 139.875 C99.72775766 135.48902024 93.37922392 131.22910136 87 127 C83.92744303 124.95421284 80.85683261 122.90550624 77.78662109 120.85620117 C74.56156637 118.7043835 71.33322682 116.55785397 68.09765625 114.421875 C36.71519877 93.6785461 13.46322127 69.85907492 3 33 C2.6803125 31.88367188 2.360625 30.76734375 2.03125 29.6171875 C-0.44250339 19.74507908 -0.29065747 10.09765566 0 0 Z " fill="#567F87" transform="translate(646,235)"/>
<path d="M0 0 C0.99 0.33 1.98 0.66 3 1 C0.6855008 5.25473895 -1.62033512 9.4709097 -4.3125 13.5 C-10.28980204 22.9498299 -15.6527269 34.04605889 -18 45 C-18.27585937 46.25296875 -18.55171875 47.5059375 -18.8359375 48.796875 C-25.38216842 81.22088593 -18.83849641 112.39694435 -1.25 140.1875 C3.51627235 147.0617519 9.12368552 153.07349361 15 159 C15.84046875 159.85335937 16.6809375 160.70671875 17.546875 161.5859375 C25.23621131 168.96483477 34.02684859 174.64880346 42.86181641 180.55029297 C45.5262778 182.35682092 48.11100193 184.25804986 50.6875 186.1875 C55.67295359 189.86834891 60.89172629 193.10415693 66.15991211 196.35791016 C71.58497421 199.71581979 76.84700228 203.23498715 82 207 C82.96421875 207.69738281 83.9284375 208.39476562 84.921875 209.11328125 C114.10426531 230.5556721 131.50709943 258.67288209 137.40625 294.46484375 C138.20801657 300.62285643 138.09440278 306.80088385 138 313 C133.88619929 312.45488506 131.61758879 311.2382661 128.375 308.6875 C123.23064735 304.8065501 117.90548539 301.34548584 112.4375 297.9375 C106.6681976 294.33329278 100.96828873 290.6972123 95.44165039 286.72607422 C92.99524598 284.99663925 90.51722566 283.33022413 88.01953125 281.67578125 C78.69193213 275.47347084 69.41132582 269.20136188 60.125 262.9375 C59.16834442 262.29237457 58.21168884 261.64724915 57.2260437 260.98257446 C45.62936013 253.16163445 34.04184809 245.32834222 22.49609375 237.43237305 C18.22315986 234.5109829 13.93791568 231.61205311 9.625 228.75 C2.35693635 223.91856776 -4.86691004 219.02895496 -12 214 C-12.57395508 213.59555664 -13.14791016 213.19111328 -13.73925781 212.77441406 C-28.34080938 202.3546497 -40.33478717 189.90750204 -49.90429688 174.73632812 C-50.84687621 173.24265071 -51.81911615 171.76776441 -52.796875 170.296875 C-59.13874023 160.42448685 -62.80412479 149.38346555 -65.8125 138.125 C-66.12296265 136.96689819 -66.12296265 136.96689819 -66.43969727 135.78540039 C-70.36382569 120.37142396 -70.23065281 103.51536447 -67 88 C-66.82855469 87.08992188 -66.65710938 86.17984375 -66.48046875 85.2421875 C-58.90313331 50.1420143 -35.62567709 23.08970199 -6.3125 3.75 C-5.7244458 3.35490234 -5.1363916 2.95980469 -4.53051758 2.55273438 C-2.86328125 1.484375 -2.86328125 1.484375 0 0 Z " fill="#044750" transform="translate(494,146)"/>
<path d="M0 0 C3.58226704 2.63598897 7.25602045 5.11667966 10.96484375 7.5703125 C11.89876953 8.1888208 11.89876953 8.1888208 12.8515625 8.81982422 C14.11269703 9.65395788 15.37425382 10.48745346 16.63623047 11.3203125 C19.77317316 13.39378869 22.89973602 15.48279437 26.02734375 17.5703125 C27.27729366 18.40372096 28.52729368 19.23705428 29.77734375 20.0703125 C37.27734375 25.0703125 37.27734375 25.0703125 39.15307617 26.32104492 C40.40033427 27.15238785 41.64789194 27.98328152 42.89575195 28.8137207 C46.06533862 30.92388161 49.2289759 33.04213945 52.3828125 35.17578125 C80.88271072 54.41701302 111.09245035 67.88473618 146.15234375 61.3203125 C162.01984972 57.8583112 178.3099652 50.85706649 188.1796875 37.30078125 C188.62441406 36.72972656 189.06914063 36.15867187 189.52734375 35.5703125 C190.18734375 35.5703125 190.84734375 35.5703125 191.52734375 35.5703125 C191.79546875 34.8690625 192.06359375 34.1678125 192.33984375 33.4453125 C193.52734375 30.5703125 193.52734375 30.5703125 194.96484375 27.7578125 C200.10623854 17.26936712 200.92958197 7.10612409 201.52734375 -4.4296875 C204.52734375 -3.4296875 204.52734375 -3.4296875 205.40625 -1.6796875 C205.63183594 -0.9371875 205.85742188 -0.1946875 206.08984375 0.5703125 C206.31800781 1.2921875 206.54617188 2.0140625 206.78125 2.7578125 C207.02746094 3.6859375 207.27367187 4.6140625 207.52734375 5.5703125 C207.78330322 6.49589966 207.78330322 6.49589966 208.04443359 7.44018555 C213.51519227 29.07903398 209.5929279 52.46084794 198.45703125 71.58984375 C188.77446545 86.54489984 188.77446545 86.54489984 183.52734375 88.5703125 C183.52734375 89.2303125 183.52734375 89.8903125 183.52734375 90.5703125 C163.93563497 108.07918181 140.67994842 117.01981685 114.52734375 116.9453125 C113.8427005 116.94510101 113.15805725 116.94488953 112.45266724 116.94467163 C101.36186204 116.91051918 91.14172427 115.91126819 80.52734375 112.5703125 C79.32980469 112.20808594 78.13226562 111.84585938 76.8984375 111.47265625 C67.6590918 108.42728532 59.08756086 104.13877169 50.52734375 99.5703125 C49.85912598 99.21420898 49.1909082 98.85810547 48.50244141 98.49121094 C39.19208535 93.48574005 30.3375489 87.96026839 21.61865234 81.99072266 C19.03451959 80.23558789 16.43335257 78.50689837 13.83203125 76.77734375 C7.65931905 72.66781443 1.52804134 68.49947255 -4.59765625 64.3203125 C-12.84818832 58.69885506 -21.12335734 53.11861477 -29.44140625 47.59765625 C-33.52542313 44.88245822 -37.57622395 42.12792665 -41.59765625 39.3203125 C-57.83198817 28.01610171 -74.29627405 16.84103725 -91.28515625 6.6953125 C-94.47265625 4.5703125 -94.47265625 4.5703125 -95.47265625 1.5703125 C-67.24214246 -27.12517446 -30.28335604 -22.32277122 0 0 Z " fill="#034850" transform="translate(513.47265625,478.4296875)"/>
<path d="M0 0 C0.6791748 0.20866699 1.35834961 0.41733398 2.05810547 0.63232422 C20.42481012 6.35683395 37.49537303 16.38832694 53.01367188 27.58935547 C56.63982075 30.16456297 60.35491656 32.60671082 64.0625 35.0625 C65.57686441 36.06894798 67.09118782 37.07545766 68.60546875 38.08203125 C69.34071777 38.57010254 70.0759668 39.05817383 70.83349609 39.56103516 C74.80201555 42.19687623 78.76435992 44.84197943 82.72753906 47.48583984 C85.56480524 49.37811704 88.40374161 51.26770352 91.24609375 53.15234375 C95.80446026 56.17770547 100.34215285 59.22075835 104.8125 62.375 C108.72516528 65.13361416 112.69405712 67.79795788 116.6875 70.4375 C125.34898642 76.17305274 133.85252054 82.13339245 142.37109375 88.078125 C147.85012722 91.90074961 153.35010502 95.69196374 158.86499023 99.46264648 C162.94707522 102.25821502 166.98122005 105.11406491 171 108 C170.88829738 111.79788914 169.94019995 113.06397214 167.3125 115.875 C156.2571123 124.67836428 142.42328523 129.60025538 128.375 129.5 C126.93713135 129.49033203 126.93713135 129.49033203 125.47021484 129.48046875 C116.62056057 129.25579071 109.10073635 127.48220751 101 124 C100.36465332 123.731875 99.72930664 123.46375 99.07470703 123.1875 C87.08820961 117.9898419 76.60068506 110.54842771 66 103 C64.25092442 101.76951826 62.50113938 100.54004289 60.75 99.3125 C60.00492188 98.78785156 59.25984375 98.26320313 58.4921875 97.72265625 C54.67895865 95.0868664 50.81106502 92.53424992 46.94824219 89.97192383 C42.26660159 86.86037413 37.62587897 83.69373748 33 80.5 C30.99601473 79.12107308 28.99138225 77.74309488 26.98632812 76.36572266 C25.66625285 75.45808978 24.3472339 74.54891857 23.02929688 73.63818359 C-4.5781545 54.60451779 -35.97401747 44.63108624 -69.6640625 50.24609375 C-83.15919472 53.29593042 -95.24655169 58.82759241 -105.22265625 68.4609375 C-107 70 -107 70 -109 70 C-109.24878906 70.50789063 -109.49757813 71.01578125 -109.75390625 71.5390625 C-110.75109575 73.50843362 -111.78890663 75.45721606 -112.83984375 77.3984375 C-119.76330783 90.38321703 -122.66587197 102.15352132 -122 117 C-123.485 117.495 -123.485 117.495 -125 118 C-133.94685146 100.42420551 -134.99344605 77.95007616 -129.9765625 58.9609375 C-123.27530163 38.64271455 -111.0129977 21.68130563 -93 10 C-92.39124023 9.60441895 -91.78248047 9.20883789 -91.15527344 8.80126953 C-64.32879894 -8.07654048 -29.68834313 -9.6652123 0 0 Z " fill="#577F87" transform="translate(687,105)"/>
<path d="M0 0 C5.33804636 2.96646262 10.30958736 6.46430433 15.28125 10 C18.117031 11.98229351 20.98737072 13.82021503 23.9375 15.625 C30.28923762 19.62149477 36.11730018 24.22724098 41.92529297 28.96582031 C43.27674402 30.06793388 44.63927149 31.15644065 46.00390625 32.2421875 C61.86412746 45.46376726 72.8357552 64.96575674 79.5 84.25 C79.81582031 85.15621094 80.13164063 86.06242187 80.45703125 86.99609375 C88.49363115 113.00617324 84.20758378 141.9574645 71.8125 165.8125 C63.52418536 181.09555456 51.12966155 195.71243059 36.5 205.25 C35.58347656 205.87132812 34.66695312 206.49265625 33.72265625 207.1328125 C16.64060792 218.23931116 -4.01109579 225.85180575 -24.5 226.25 C-20.82132334 222.14226163 -17.23566664 219.96941532 -12.1875 217.75 C8.21365227 208.12118646 23.53219301 190.76395627 31.8125 169.875 C37.35565728 152.97452935 38.56859644 134.6197771 34.5 117.25 C34.34015625 116.47398437 34.1803125 115.69796875 34.015625 114.8984375 C30.46502796 100.55210622 21.99705647 88.3388376 11.5 78.25 C10.613125 77.37859375 9.72625 76.5071875 8.8125 75.609375 C2.22219837 69.36391473 -4.93769539 64.24133024 -12.5 59.25 C-13.76993739 58.40425537 -15.03945778 57.55788429 -16.30859375 56.7109375 C-18.23489658 55.42608988 -20.16172661 54.14210293 -22.09106445 52.86181641 C-27.28799021 49.40991843 -32.41422314 45.86389321 -37.5 42.25 C-35.89397097 26.72505275 -23.73018436 13.58559911 -12.625 3.6875 C-11.59375 2.883125 -10.5625 2.07875 -9.5 1.25 C-8.736875 0.528125 -7.97375 -0.19375 -7.1875 -0.9375 C-3.86975268 -1.94053989 -3.08855656 -1.43734758 0 0 Z " fill="#03484F" transform="translate(692.5,367.75)"/>
<path d="M0 0 C-2.42850347 1.46569856 -4.85956015 2.91998469 -7.32421875 4.32421875 C-29.60840302 17.17906224 -43.95674504 36.12177994 -52.09375 60.2421875 C-58.35189286 83.94200628 -53.96010813 108.12017877 -42 129 C-41.51660156 129.85078125 -41.03320312 130.7015625 -40.53515625 131.578125 C-29.63341496 149.14730806 -12.83076682 159.83002831 4.66796875 169.921875 C5.54372559 170.43298828 6.41948242 170.94410156 7.32177734 171.47070312 C9.16133605 172.52111294 11.02284158 173.53371636 12.90087891 174.51367188 C15.42729491 175.88112843 17.75379323 177.20934449 20 179 C21.46672796 184.00051903 18.74575829 188.66971371 16.5625 193.1875 C16.20631592 193.93418945 15.85013184 194.68087891 15.4831543 195.45019531 C9.55069517 207.40533129 0.09647575 217.6023495 -11 225 C-13.95587692 224.62524891 -16.21156648 223.45861391 -18.7578125 221.9609375 C-19.46091553 221.54884033 -20.16401855 221.13674316 -20.88842773 220.7121582 C-21.62649658 220.270896 -22.36456543 219.82963379 -23.125 219.375 C-23.8869165 218.92278076 -24.64883301 218.47056152 -25.43383789 218.00463867 C-31.14663225 214.58254914 -36.6149225 210.91726992 -42 207 C-43.64525782 205.87415851 -45.29110557 204.7491787 -46.9375 203.625 C-55.91095016 197.32389393 -64.84118138 190.36079311 -72 182 C-72 181.34 -72 180.68 -72 180 C-72.99 179.67 -73.98 179.34 -75 179 C-94.82183098 155.19034503 -102.63303415 124.43794199 -101 94 C-98.55686403 69.6907971 -86.61677694 46.84924102 -69 30 C-68.34 30 -67.68 30 -67 30 C-67 29.34 -67 28.68 -67 28 C-57.62388396 19.04556114 -44.96839192 11.77160889 -33 7 C-32.39929688 6.75652832 -31.79859375 6.51305664 -31.1796875 6.26220703 C-5.99087274 -3.8798033 -5.99087274 -3.8798033 0 0 Z " fill="#558088" transform="translate(603,104)"/>
<path d="M0 0 C2.96175123 0.61277612 4.38058783 1.25372522 7 3 C7 3.66 7 4.32 7 5 C4.525 4.01 4.525 4.01 2 3 C14.42613585 28.84636256 33.00119485 50.81623365 56 68 C57.22953116 68.93441642 58.45866675 69.86935347 59.6875 70.8046875 C63.7705236 73.89851985 67.88121915 76.95399987 72 80 C72.68803711 80.50950195 73.37607422 81.01900391 74.08496094 81.54394531 C76.09643997 83.03184959 78.11006975 84.51677345 80.125 86 C80.72795898 86.44456543 81.33091797 86.88913086 81.95214844 87.34716797 C84.58697412 89.27863542 87.2322682 91.15453823 89.953125 92.96484375 C101.11196623 100.41837744 111.26344957 108.79200517 121 118 C122.70412418 119.52554829 124.41229255 121.04659433 126.125 122.5625 C135.83798574 131.33052222 144.14306316 140.57984955 152 151 C152.78117188 152.0209375 153.56234375 153.041875 154.3671875 154.09375 C157.99480531 158.93057375 160.77897692 163.34648669 163 169 C163.9131877 170.52292483 164.83038392 172.0434483 165.75 173.5625 C170.65738012 182.42270749 173.22496322 192.31142157 176 202 C176.54914063 203.89685547 176.54914063 203.89685547 177.109375 205.83203125 C181.74142489 224.25098437 180.01400037 246.43967184 171.984375 263.74121094 C171.05724839 265.86863539 170.38829332 267.94335183 169.73828125 270.16796875 C167.99114892 275.48582667 165.27170715 279.94135391 162.25 284.625 C161.74984375 285.43195313 161.2496875 286.23890625 160.734375 287.0703125 C157.72612265 291.79756619 154.55412008 295.72670106 150.40917969 299.50537109 C148.74671056 301.05868244 148.74671056 301.05868244 148 304 C147.67 304.33 147.34 304.66 147 305 C149.31 303.35 151.62 301.7 154 300 C154.66 300.33 155.32 300.66 156 301 C154.625 302.5 154.625 302.5 153 304 C152.34 304 151.68 304 151 304 C151 304.66 151 305.32 151 306 C148.89980986 307.47309111 146.82232271 308.81309635 144.625 310.125 C144.02171875 310.49753906 143.4184375 310.87007812 142.796875 311.25390625 C138.27034684 314 138.27034684 314 136 314 C137.35657308 310.32539914 139.04752796 307.1892926 141.125 303.875 C147.82387204 292.53736928 153.2239143 279.89197374 156 267 C156.19078125 266.19949219 156.3815625 265.39898437 156.578125 264.57421875 C158.09715889 257.77111698 158.64503758 250.95206893 159 244 C159.06380859 242.80310547 159.06380859 242.80310547 159.12890625 241.58203125 C159.69888756 219.5047553 153.47798462 199.20406861 143.35546875 179.80078125 C142 177 142 177 142 175 C141.34 175 140.68 175 140 175 C138.703125 173.27734375 138.703125 173.27734375 137.25 170.9375 C134.80291863 167.11619559 132.1743866 163.74298854 129.1015625 160.41015625 C128 159 128 159 128 157 C127.34 157 126.68 157 126 157 C124.31066078 155.3563186 122.64740076 153.6857124 121 152 C120.071875 151.278125 119.14375 150.55625 118.1875 149.8125 C117.465625 149.214375 116.74375 148.61625 116 148 C116 147.34 116 146.68 116 146 C115.46375 145.75507813 114.9275 145.51015625 114.375 145.2578125 C111.40541721 143.68510582 108.74867122 141.80850157 106 139.875 C99.72775766 135.48902024 93.37922392 131.22910136 87 127 C83.92744303 124.95421284 80.85683261 122.90550624 77.78662109 120.85620117 C74.56156637 118.7043835 71.33322682 116.55785397 68.09765625 114.421875 C36.71519877 93.6785461 13.46322127 69.85907492 3 33 C2.6803125 31.88367188 2.360625 30.76734375 2.03125 29.6171875 C-0.44250339 19.74507908 -0.29065747 10.09765566 0 0 Z " fill="#155D65" transform="translate(646,235)"/>
<path d="M0 0 C2 1 2 1 3.26171875 4.61328125 C3.73958104 6.17889571 4.21466794 7.74535902 4.6875 9.3125 C7.5534214 18.36282526 11.13490195 26.28130255 17.2109375 33.69921875 C19 36 19 36 19 38 C19.66 38 20.32 38 21 38 C21.58910156 38.73992187 22.17820312 39.47984375 22.78515625 40.2421875 C25.11007962 43.13706563 27.41462986 44.98677008 30.4375 47.125 C31.36433594 47.78757812 32.29117188 48.45015625 33.24609375 49.1328125 C35.95230772 51.04331094 35.95230772 51.04331094 38.84765625 52.4921875 C39.55792969 52.98976563 40.26820313 53.48734375 41 54 C41 55.32 41 56.64 41 58 C39.3828125 59.38671875 39.3828125 59.38671875 37.125 60.6875 C19.58523051 71.71171249 8.51654276 88.93219818 2.921875 108.671875 C2 111 2 111 -1 113 C-1.25652344 112.11441406 -1.51304687 111.22882813 -1.77734375 110.31640625 C-4.09261637 102.82490122 -6.83217413 95.87714557 -10.5 88.9375 C-10.86730225 88.23633057 -11.23460449 87.53516113 -11.61303711 86.81274414 C-13.424247 83.47866225 -15.30486807 80.51075212 -17.78125 77.62890625 C-20 75 -20 75 -20 73 C-20.66 73 -21.32 73 -22 73 C-22.57621094 72.27039063 -23.15242187 71.54078125 -23.74609375 70.7890625 C-26.23968167 67.70340951 -28.85001727 65.6918091 -32.0625 63.375 C-38.51179847 58.70344388 -38.51179847 58.70344388 -41 56 C-38.55078413 53.35614445 -35.83290486 51.42278029 -32.875 49.375 C-16.8790155 37.8106207 -6.47697527 21.81675325 -1.5078125 2.7578125 C-1 1 -1 1 0 0 Z " fill="#044950" transform="translate(639,291)"/>
<path d="M0 0 C1.485 0.99 1.485 0.99 3 2 C3 2.66 3 3.32 3 4 C3.99 4 4.98 4 6 4 C6.35578125 5.07314453 6.35578125 5.07314453 6.71875 6.16796875 C10.81023807 15.21165427 20.19728152 22.24903262 28 28 C28.65033203 28.48227051 29.30066406 28.96454102 29.97070312 29.46142578 C38.15560378 35.51537908 46.41306578 41.39764052 55.0246582 46.83007812 C59.9993899 49.970346 64.81918233 53.30665119 69.640625 56.67578125 C73.86407481 59.61487043 78.15390162 62.45384343 82.44897461 65.28686523 C85.88262112 67.5595187 89.27115147 69.88531883 92.63671875 72.2578125 C98.15344664 76.13358437 103.76159967 79.86778918 109.38037109 83.59310913 C117.62936589 89.06314733 125.86524803 94.54825743 134 100.1875 C139.1141276 103.7321081 144.28657339 107.14925096 149.55859375 110.45703125 C152.63943412 112.40412237 155.65970838 114.43479491 158.68359375 116.46875 C161.28444595 118.18803173 163.92133977 119.8433713 166.5625 121.5 C170.68669177 124.0971418 174.55993809 126.86325485 178.34375 129.93359375 C180.09208424 131.2706794 180.09208424 131.2706794 183 131 C183 131.99 183 132.98 183 134 C178.88619929 133.45488506 176.61758879 132.2382661 173.375 129.6875 C168.23064735 125.8065501 162.90548539 122.34548584 157.4375 118.9375 C151.6681976 115.33329278 145.96828873 111.6972123 140.44165039 107.72607422 C137.99524598 105.99663925 135.51722566 104.33022413 133.01953125 102.67578125 C123.69193213 96.47347084 114.41132582 90.20136188 105.125 83.9375 C104.16834442 83.29237457 103.21168884 82.64724915 102.2260437 81.98257446 C90.62936013 74.16163445 79.04184809 66.32834222 67.49609375 58.43237305 C63.22315986 55.5109829 58.93791568 52.61205311 54.625 49.75 C47.35693635 44.91856776 40.13308996 40.02895496 33 35 C32.42604492 34.59555664 31.85208984 34.19111328 31.26074219 33.77441406 C24.28653705 28.79757486 18.07047329 23.33777631 12 17.3125 C11.06498657 16.3858252 11.06498657 16.3858252 10.11108398 15.44042969 C0 5.16876516 0 5.16876516 0 0 Z " fill="#00202A" transform="translate(449,325)"/>
<path d="M0 0 C0.33 0 0.66 0 1 0 C0.78175712 12.87633021 -7.61739806 24.62574089 -16 34 C-18.26953125 35.33203125 -18.26953125 35.33203125 -20 36 C-20 36.66 -20 37.32 -20 38 C-39.59170878 55.50886931 -62.84739533 64.44950435 -89 64.375 C-89.68464325 64.37478851 -90.3692865 64.37457703 -91.07467651 64.37435913 C-102.16548171 64.34020668 -112.38561948 63.34095569 -123 60 C-124.19753906 59.63777344 -125.39507813 59.27554688 -126.62890625 58.90234375 C-145.03304849 52.83617396 -163.50889716 42.5810889 -179 31 C-178.67 30.34 -178.34 29.68 -178 29 C-176.90945313 29.67804687 -175.81890625 30.35609375 -174.6953125 31.0546875 C-140.04408397 52.49435892 -105.71621291 67.76213408 -64 59 C-48.42941919 54.86531561 -33.87980548 46.77653996 -22 36 C-21.35675781 35.44957031 -20.71351563 34.89914062 -20.05078125 34.33203125 C-14.38106928 29.17195631 -10.82073723 22.56170089 -7 16 C-6.44957031 15.11699219 -5.89914062 14.23398437 -5.33203125 13.32421875 C-3.6240406 10.34400047 -2.90124361 7.3045599 -2 4 C-1.37530495 2.64649406 -0.7283669 1.30065517 0 0 Z " fill="#00272E" transform="translate(717,531)"/>
<path d="M0 0 C3.58229122 2.63600676 7.25628766 5.11624136 10.96484375 7.5703125 C11.57948486 7.97830078 12.19412598 8.38628906 12.82739258 8.80664062 C16.10067861 10.97545411 19.38272683 13.13060194 22.66796875 15.28125 C23.34545166 15.72726562 24.02293457 16.17328125 24.72094727 16.6328125 C26.01298846 17.48331005 27.30760085 18.32991946 28.60522461 19.171875 C31.93783359 21.36889782 34.82247883 23.63053375 37.52734375 26.5703125 C34.0331867 26.5703125 33.14845317 25.88999997 30.30859375 23.96484375 C29.4678833 23.39967041 28.62717285 22.83449707 27.76098633 22.25219727 C26.85888428 21.63530029 25.95678223 21.01840332 25.02734375 20.3828125 C23.63068481 19.4390979 23.63068481 19.4390979 22.20581055 18.47631836 C19.30789418 16.51503289 16.41704775 14.54367292 13.52734375 12.5703125 C11.77351413 11.37749148 10.01961111 10.18477839 8.265625 8.9921875 C6.6234141 7.8728121 4.98147908 6.75303184 3.33984375 5.6328125 C2.54408936 5.09035889 1.74833496 4.54790527 0.9284668 3.98901367 C-2.99913363 1.30148939 -6.84940726 -1.45297701 -10.66015625 -4.3046875 C-26.64955503 -15.60461597 -44.96685032 -17.4465037 -63.91796875 -14.3828125 C-73.90619419 -11.70465095 -83.00500835 -6.54173312 -90.47265625 0.5703125 C-91.13265625 0.5703125 -91.79265625 0.5703125 -92.47265625 0.5703125 C-92.47265625 1.5603125 -92.47265625 2.5503125 -92.47265625 3.5703125 C-91.77664307 3.81579834 -91.08062988 4.06128418 -90.36352539 4.31420898 C-87.01552927 5.76893747 -84.233569 7.6089637 -81.21875 9.66796875 C-80.02280903 10.4772469 -78.8268448 11.28649067 -77.63085938 12.09570312 C-75.76455637 13.36689593 -73.89959855 14.64002924 -72.03540039 15.91430664 C-70.2247652 17.14955533 -68.4094921 18.37774439 -66.59375 19.60546875 C-65.51536865 20.341604 -64.4369873 21.07773926 -63.32592773 21.83618164 C-60.85074482 23.34052187 -59.20766671 23.91720453 -56.47265625 24.5703125 C-54.72265625 27.1328125 -54.72265625 27.1328125 -53.47265625 29.5703125 C-57.7387882 28.97602546 -60.89399729 26.45659786 -64.34765625 24.0703125 C-65.68942799 23.15915971 -67.03189264 22.24902659 -68.375 21.33984375 C-69.05546387 20.87787598 -69.73592773 20.4159082 -70.43701172 19.93994141 C-73.56620631 17.83454663 -76.73450601 15.79220666 -79.91015625 13.7578125 C-80.48902588 13.3851123 -81.06789551 13.01241211 -81.66430664 12.62841797 C-84.83816599 10.59131985 -88.04597717 8.62613989 -91.28515625 6.6953125 C-94.47265625 4.5703125 -94.47265625 4.5703125 -95.47265625 1.5703125 C-67.24214246 -27.12517446 -30.28335604 -22.32277122 0 0 Z " fill="#00262D" transform="translate(513.47265625,478.4296875)"/>
<path d="M0 0 C3.97596356 2.89607222 8.05199232 5.60759462 12.1640625 8.3046875 C21.30271383 14.31970832 30.35167122 20.45873966 39.3515625 26.6796875 C40.35590332 27.36981934 41.36024414 28.05995117 42.39501953 28.77099609 C43.3436084 29.42922363 44.29219727 30.08745117 45.26953125 30.765625 C46.11668701 31.35134277 46.96384277 31.93706055 47.83666992 32.54052734 C50.16123089 34.30254114 52.1546312 36.19477015 54.1640625 38.3046875 C50.19558528 36.88066198 46.9594203 34.9840428 43.4765625 32.6171875 C42.41695312 31.89917969 41.35734375 31.18117187 40.265625 30.44140625 C36.79535259 28.05067702 33.34658644 25.63112383 29.90234375 23.203125 C26.64282718 20.94331751 23.34430342 18.74683054 20.0390625 16.5546875 C14.71198734 13.02131996 9.42447897 9.43651387 4.1640625 5.8046875 C2.16007723 4.42576058 0.15544475 3.04778238 -1.84960938 1.67041016 C-3.16968465 0.76277728 -4.4887036 -0.14639393 -5.80664062 -1.05712891 C-33.42309904 -20.09700451 -64.79397879 -30.04324841 -98.4921875 -24.453125 C-107.26304593 -22.46533699 -115.47866036 -19.36133653 -123.06640625 -14.515625 C-124.8359375 -13.6953125 -124.8359375 -13.6953125 -127.8359375 -14.6953125 C-118.58096561 -20.98869339 -108.01134187 -26.14763959 -96.8359375 -27.6953125 C-96.05734375 -27.80488281 -95.27875 -27.91445312 -94.4765625 -28.02734375 C-58.87015664 -32.07352623 -28.53097517 -20.87092357 0 0 Z " fill="#38646B" transform="translate(715.8359375,179.6953125)"/>
<path d="M0 0 C2.14971135 1.46238868 4.23768737 2.97560311 6.296875 4.5625 C5.966875 5.2225 5.636875 5.8825 5.296875 6.5625 C4.636875 6.088125 3.976875 5.61375 3.296875 5.125 C-1.55528703 2.59783228 -6.24870074 2.5625 -11.703125 2.5625 C-25.39528113 9.10962269 -33.69957547 27.17311328 -38.703125 40.5625 C-37.65898438 40.93761719 -37.65898438 40.93761719 -36.59375 41.3203125 C-17.80333742 49.39511142 12.58052104 69.42070306 21.296875 88.5625 C18.04644609 87.16743574 16.22315708 85.59466606 13.984375 82.875 C3.17254851 70.19671084 -10.00645504 61.05220706 -23.96484375 52.11425781 C-26.44645554 50.52330399 -28.91849317 48.91813395 -31.390625 47.3125 C-32.59561646 46.55090576 -32.59561646 46.55090576 -33.82495117 45.77392578 C-34.57236572 45.28649902 -35.31978027 44.79907227 -36.08984375 44.296875 C-36.76233154 43.86600586 -37.43481934 43.43513672 -38.12768555 42.99121094 C-40.08518486 41.21602327 -40.46419801 40.17893627 -40.703125 37.5625 C-40.20922852 35.70654297 -40.20922852 35.70654297 -39.33203125 33.8046875 C-39.00920166 33.10150391 -38.68637207 32.39832031 -38.35375977 31.67382812 C-37.99467529 30.93583984 -37.63559082 30.19785156 -37.265625 29.4375 C-36.71636353 28.29571289 -36.71636353 28.29571289 -36.15600586 27.13085938 C-33.06576344 20.91200286 -29.45972505 15.64280062 -24.703125 10.5625 C-23.96964844 9.76199219 -23.23617187 8.96148437 -22.48046875 8.13671875 C-20.29491659 5.8462001 -18.05033655 3.6861676 -15.703125 1.5625 C-15.04441406 0.95277344 -14.38570312 0.34304688 -13.70703125 -0.28515625 C-8.47152288 -4.40403708 -5.54047086 -3.24664535 0 0 Z " fill="#002931" transform="translate(695.703125,369.4375)"/>
<path d="M0 0 C0.99 0.33 1.98 0.66 3 1 C1.37660195 2.70884005 -0.29319053 4.37446717 -2 6 C-2.66 6 -3.32 6 -4 6 C-4.2578125 6.60070312 -4.515625 7.20140625 -4.78125 7.8203125 C-6.1157093 10.20694164 -7.33613638 11.2343657 -9.5 12.875 C-13.43944425 16.19508007 -16.34865514 19.88885564 -19.3125 24.0625 C-19.73273438 24.65208496 -20.15296875 25.24166992 -20.5859375 25.84912109 C-23.07198538 29.42731139 -25.14039756 33.04608802 -27 37 C-27.66 37 -28.32 37 -29 37 C-29.391875 38.2375 -29.78375 39.475 -30.1875 40.75 C-31.47032585 44.64144301 -32.99239841 48.36765026 -34.625 52.125 C-36.51148407 56.55119844 -37.50513805 60.24932525 -38 65 C-38.48400269 65.95253662 -38.48400269 65.95253662 -38.9777832 66.92431641 C-40.75462498 70.53231947 -40.81785045 74.41095208 -41.1875 78.375 C-41.27427002 79.29385986 -41.36104004 80.21271973 -41.45043945 81.15942383 C-42.57251359 94.80805163 -41.44838091 108.41574989 -40 122 C-42 121 -42 121 -42.59765625 119.25 C-42.75105469 118.5075 -42.90445312 117.765 -43.0625 117 C-43.21847656 116.278125 -43.37445313 115.55625 -43.53515625 114.8125 C-45.92740218 100.33840699 -45.99369668 85.37737131 -43 71 C-42.82855469 70.08992188 -42.65710938 69.17984375 -42.48046875 68.2421875 C-36.85690919 42.19240837 -21.92282861 18.61894894 -1.93359375 1.19921875 C-0.97646484 0.60560547 -0.97646484 0.60560547 0 0 Z " fill="#002C34" transform="translate(470,163)"/>
<path d="M0 0 C0 3.61221371 -1.0399366 4.40071948 -3.50341797 6.86987305 C-3.99729004 7.34593994 -4.49116211 7.82200684 -5 8.3125 C-5.50547363 8.80596924 -6.01094727 9.29943848 -6.53173828 9.80786133 C-10.47097566 13.60020553 -14.44791204 16.98150317 -19 20 C-19.91910156 20.62390625 -20.83820312 21.2478125 -21.78515625 21.890625 C-38.87381508 32.98660669 -59.50962391 40.60177714 -80 41 C-76.32174053 36.89272747 -72.73621961 34.71765611 -67.6875 32.5 C-61.26627945 29.4903101 -55.79537682 25.86813481 -50.3125 21.375 C-49.65403076 20.83681641 -48.99556152 20.29863281 -48.31713867 19.74414062 C-45.31294808 17.20956083 -42.63193876 14.66915568 -40.16796875 11.6015625 C-39.45253906 10.74304688 -38.73710938 9.88453125 -38 9 C-37.34 9 -36.68 9 -36 9 C-37.55420691 12.81487151 -40.03656811 15.25221691 -43 18 C-43.71414063 18.68449219 -44.42828125 19.36898437 -45.1640625 20.07421875 C-52.61937955 27.0443485 -60.71127393 32.73220694 -70 37 C-42.22592574 33.45177025 -19.67198962 19.13450357 0 0 Z " fill="#002B33" transform="translate(748,553)"/>
<path d="M0 0 C3.82570357 0.631602 6.34663057 2.42950892 9.5 4.625 C36.2366637 22.77352324 64.96408917 33.17616763 97.5 28 C98.4590625 27.814375 99.418125 27.62875 100.40625 27.4375 C102.98965137 27.00174555 105.3857082 26.92422343 108 27 C101.9146821 33.0853179 87.12455289 32.39318823 78.9375 32.5 C60.50296386 32.4172377 43.90746628 28.20711337 28 19 C26.75547758 18.31484637 25.50938201 17.63254236 24.26171875 16.953125 C15.57108909 12.1709124 6.91472365 7.19631873 0 0 Z " fill="#00272F" transform="translate(561,512)"/>
<path d="M0 0 C0.66 0 1.32 0 2 0 C3.19820784 1.85043427 4.30894982 3.75790262 5.375 5.6875 C7.17373162 8.93234845 8.89957124 11.87508072 11.2265625 14.76953125 C13 17 13 17 13 19 C13.66 19 14.32 19 15 19 C15.88365234 20.10988281 15.88365234 20.10988281 16.78515625 21.2421875 C19.11007962 24.13706563 21.41462986 25.98677008 24.4375 28.125 C25.36433594 28.78757812 26.29117188 29.45015625 27.24609375 30.1328125 C29.95230772 32.04331094 29.95230772 32.04331094 32.84765625 33.4921875 C33.55792969 33.98976563 34.26820313 34.48734375 35 35 C35 36.32 35 37.64 35 39 C33.3828125 40.38671875 33.3828125 40.38671875 31.125 41.6875 C17.63264771 50.16780293 8.74094211 62.27880065 1 76 C-0.28432364 72.14702908 0.41980851 70.68711349 2 67 C3.32903922 65.66238634 4.66308406 64.32974108 6 63 C7.44053954 61.08018321 8.85563711 59.14111276 10.25 57.1875 C15.68913515 49.76671672 22.04462641 44.51675262 29.53125 39.26171875 C30.0159375 38.84535156 30.500625 38.42898438 31 38 C31 37.34 31 36.68 31 36 C29.23357296 34.58626059 27.40916621 33.24469069 25.5625 31.9375 C14.78097652 24.07627102 5.29535136 14.45965025 0 2 C0 1.34 0 0.68 0 0 Z " fill="#002933" transform="translate(645,310)"/>
<path d="M0 0 C3 1 3 1 3.94921875 2.85546875 C5.37868052 7.37075277 6.3692425 11.19984755 6 16 C4.25372522 13.38058783 3.61277612 11.96175123 3 9 C2.90203125 10.00160156 2.8040625 11.00320313 2.703125 12.03515625 C1.93069711 19.18191062 1.22688365 25.01191482 -3 31 C-3.96380151 32.66351051 -4.92168796 34.33045614 -5.875 36 C-8.5506797 40.44135666 -11.41421851 44.25122844 -15 48 C-15.66 48 -16.32 48 -17 48 C-17.2371875 48.58910156 -17.474375 49.17820312 -17.71875 49.78515625 C-21.68540663 56.6421511 -31.8781613 61.07539614 -39 64 C-42.625 64.8125 -42.625 64.8125 -45 65 C-45 64.34 -45 63.68 -45 63 C-44.44054687 62.81566406 -43.88109375 62.63132812 -43.3046875 62.44140625 C-32.42005427 58.50403893 -17.40627189 50.81254377 -12 40 C-11.34 40 -10.68 40 -10 40 C-9.731875 39.29875 -9.46375 38.5975 -9.1875 37.875 C-8 35 -8 35 -6.5625 32.1875 C-1.42110521 21.69905462 -0.59776178 11.53581159 0 0 Z " fill="#003139" transform="translate(715,474)"/>
<path d="M0 0 C0.66 0 1.32 0 2 0 C0.60291053 4.71697732 -1.40873873 8.83134915 -3.875 13.0625 C-4.21402344 13.66126953 -4.55304687 14.26003906 -4.90234375 14.87695312 C-10.90769082 25.30068292 -20.05744256 32.44214297 -30 39 C-30.66 39 -31.32 39 -32 39 C-32 39.66 -32 40.32 -32 41 C-31.46375 41.2475 -30.9275 41.495 -30.375 41.75 C-24.83834227 44.66403038 -20.36535974 48.27551991 -16 52.6875 C-15.47889648 53.21134277 -14.95779297 53.73518555 -14.42089844 54.27490234 C-4 64.97929614 -4 64.97929614 -4 70 C-7.6100444 68.79665187 -8.10828588 67.75648072 -10.125 64.625 C-10.64320313 63.83351563 -11.16140625 63.04203125 -11.6953125 62.2265625 C-13 60 -13 60 -14 57 C-14.66 57 -15.32 57 -16 57 C-16.57621094 56.27039063 -17.15242187 55.54078125 -17.74609375 54.7890625 C-20.23968167 51.70340951 -22.85001727 49.6918091 -26.0625 47.375 C-32.51179847 42.70344388 -32.51179847 42.70344388 -35 40 C-32.55078413 37.35614445 -29.83290486 35.42278029 -26.875 33.375 C-14.58348539 24.48878627 -6.33059022 13.71141661 0 0 Z " fill="#002E36" transform="translate(633,307)"/>
<path d="M0 0 C1.77555852 0.99158591 3.54511607 1.99391614 5.3125 3 C6.29863281 3.556875 7.28476562 4.11375 8.30078125 4.6875 C12.40081162 7.14646663 16.18744851 10.02508125 20.03588867 12.85498047 C24.93064666 16.39713875 29.96400725 19.72566933 35 23.0625 C36.00289063 23.73087891 37.00578125 24.39925781 38.0390625 25.08789062 C43.81866517 28.92975829 49.63611171 32.70219863 55.5090332 36.39990234 C62.5712227 40.93637103 69.32806738 45.91218546 76 51 C74.515 51.495 74.515 51.495 73 52 C70.99414062 50.8894043 70.99414062 50.8894043 68.65625 49.13671875 C67.76679687 48.48622559 66.87734375 47.83573242 65.9609375 47.16552734 C64.49527344 46.09359131 64.49527344 46.09359131 63 45 C60.84932241 43.51807374 58.69486076 42.04471525 56.53125 40.58203125 C55.38025927 39.80066333 54.22929955 39.01924973 53.07836914 38.23779297 C51.88561551 37.42930874 50.69282509 36.62087879 49.5 35.8125 C48.58007767 35.18846283 48.58007767 35.18846283 47.64157104 34.55181885 C39.42789173 28.98029558 31.19166421 23.44478742 22.92333984 17.95458984 C16.55697726 13.72095115 10.24246845 9.41471868 4 5 C2.83597656 4.19755859 2.83597656 4.19755859 1.6484375 3.37890625 C1.10445313 2.92386719 0.56046875 2.46882813 0 2 C0 1.34 0 0.68 0 0 Z " fill="#002A36" transform="translate(461,508)"/>
<path d="M0 0 C0.86625 0.763125 1.7325 1.52625 2.625 2.3125 C17.29314195 14.81409004 33.02289529 25.50428144 49.49609375 35.4765625 C51.35707702 36.60883001 53.18748802 37.79165868 55 39 C60.05303088 38.93974239 62.8909948 35.76754333 66.3125 32.4375 C66.86228516 31.91736328 67.41207031 31.39722656 67.97851562 30.86132812 C69.32730346 29.58291183 70.66480436 28.29260567 72 27 C72 30 72 30 69.875 32.375 C66.07386725 35.84559947 62.29224106 39.13850596 58 42 C55.04412308 41.62524891 52.78843352 40.45861391 50.2421875 38.9609375 C49.53908447 38.54884033 48.83598145 38.13674316 48.11157227 37.7121582 C47.37350342 37.270896 46.63543457 36.82963379 45.875 36.375 C45.1130835 35.92278076 44.35116699 35.47056152 43.56616211 35.00463867 C37.85336775 31.58254914 32.3850775 27.91726992 27 24 C25.35474218 22.87415851 23.70889443 21.7491787 22.0625 20.625 C14.20323826 15.11732838 6.44600605 9.14287157 0 2 C0 1.34 0 0.68 0 0 Z " fill="#336271" transform="translate(534,287)"/>
<path d="M0 0 C11.91786514 2.37649343 22.52418242 17.43203927 29 27 C30.93642363 29.94378863 32.80237732 32.92202531 34.625 35.9375 C35.05135742 36.63512451 35.47771484 37.33274902 35.91699219 38.05151367 C38.46327157 42.43298245 39.61728307 45.93889848 40 51 C36.81534735 47.13016451 34.85201276 42.74090979 32.78125 38.22070312 C30.75209718 33.98416109 28.31006263 31.27328416 25 28 C24.52820313 27.04996094 24.05640625 26.09992188 23.5703125 25.12109375 C21.56708598 21.13955646 18.92461563 18.27736358 15.875 15.0625 C15.01418823 14.14271362 15.01418823 14.14271362 14.13598633 13.2043457 C10.2177485 9.08923899 6.14848233 5.44155742 1.51171875 2.13671875 C1.01285156 1.76160156 0.51398437 1.38648438 0 1 C0 0.67 0 0.34 0 0 Z " fill="#00353B" transform="translate(727,393)"/>
<path d="M0 0 C1.47533203 0.32484375 1.47533203 0.32484375 2.98046875 0.65625 C18.00886263 3.75195216 33.28850973 4.36351425 48.40625 1.4375 C50.98965137 1.00174555 53.3857082 0.92422343 56 1 C49.7967415 7.2032585 34.79166268 6.35953484 26.5 6.4375 C16.84612249 6.4263376 8.16010161 4.97803013 -1 2 C-0.67 1.34 -0.34 0.68 0 0 Z " fill="#001C25" transform="translate(613,538)"/>
<path d="M0 0 C3.15551696 1.42775954 5.54647913 3.17953629 8.18359375 5.4140625 C15.42316368 11.29662841 23.26656581 16.27187043 31.0625 21.375 C34.0569047 23.33585925 37.04718907 25.30278686 40.03515625 27.2734375 C40.72045914 27.71924164 41.40576202 28.16504578 42.11183167 28.62435913 C46.88724855 31.77449709 46.88724855 31.77449709 48 34 C42.12047403 31.82394768 37.21710363 28.42964561 32 25 C31.40799805 24.61215332 30.81599609 24.22430664 30.20605469 23.82470703 C7.63151703 9.01274537 7.63151703 9.01274537 0 2 C0 1.34 0 0.68 0 0 Z " fill="#004149" transform="translate(686,327)"/>
<path d="M0 0 C-2.94068798 1.96045866 -5.03228498 2.49181061 -8.44384766 3.13891602 C-25.33061723 6.41835918 -38.62729178 15.58602781 -52 26 C-52.66 25.67 -53.32 25.34 -54 25 C-45.85998982 17.72467955 -37.67265573 12.02931313 -28 7 C-27.23300781 6.59007813 -26.46601562 6.18015625 -25.67578125 5.7578125 C-20.85727558 3.38986114 -15.80301548 2.02947956 -10.625 0.6875 C-9.92197754 0.50348633 -9.21895508 0.31947266 -8.49462891 0.12988281 C-5.14691039 -0.68821438 -3.33376617 -1.11125539 0 0 Z " fill="#406875" transform="translate(633,102)"/>
<path d="M0 0 C-2.44258091 1.47247785 -4.88807321 2.93551238 -7.359375 4.359375 C-12.65283595 7.43857778 -17.4624338 10.78150789 -22.1875 14.6796875 C-24 16 -24 16 -26 16 C-24.64185223 11.9255567 -21.8691574 10.57978049 -18.4375 8.3125 C-17.82197266 7.89677734 -17.20644531 7.48105469 -16.57226562 7.05273438 C-15.05293329 6.02806838 -13.52707343 5.01309322 -12 4 C-13.66611905 3.957279 -15.33382885 3.95936168 -17 4 C-17.33 4.33 -17.66 4.66 -18 5 C-19.66617115 5.04063832 -21.33388095 5.042721 -23 5 C-23 4.34 -23 3.68 -23 3 C-20.77155786 2.3516711 -18.5422154 1.70643631 -16.3125 1.0625 C-14.45044922 0.52302734 -14.45044922 0.52302734 -12.55078125 -0.02734375 C-3.83522727 -2.41477273 -3.83522727 -2.41477273 0 0 Z " fill="#38646C" transform="translate(603,104)"/>
<path d="M0 0 C3.90188547 1.37754738 6.83670542 3.1893777 10.125 5.6875 C13.71788576 8.35827545 17.32112266 10.88997244 21.125 13.25 C26.17153345 16.41229954 31.06374933 19.76750536 35.9375 23.1875 C36.67178223 23.69893555 37.40606445 24.21037109 38.16259766 24.73730469 C41.74203354 27.26464594 45.02741437 29.74800684 48 33 C44.03152278 31.57597448 40.7953578 29.6793553 37.3125 27.3125 C36.25289062 26.59449219 35.19328125 25.87648437 34.1015625 25.13671875 C30.64437889 22.75500662 27.20846622 20.344806 23.77734375 17.92578125 C19.06850823 14.66072371 14.28942082 11.50102451 9.515625 8.33203125 C8.92974609 7.94096191 8.34386719 7.54989258 7.74023438 7.14697266 C6.57329464 6.37785329 5.39725464 5.62237839 4.21289062 4.88037109 C2.77612615 3.96955 1.38298587 2.99057423 0 2 C0 1.34 0 0.68 0 0 Z " fill="#40676E" transform="translate(722,185)"/>
<path d="M0 0 C20.53552549 -0.64853229 38.38121446 0.28252783 58 7 C58 7.66 58 8.32 58 9 C56.97003906 8.74605469 55.94007813 8.49210937 54.87890625 8.23046875 C50.26318098 7.10625887 45.6339412 6.04621972 41 5 C40.31131836 4.84031738 39.62263672 4.68063477 38.91308594 4.51611328 C25.97433614 1.58243811 13.21719143 1.67453563 0 2 C0 1.34 0 0.68 0 0 Z " fill="#386169" transform="translate(635,100)"/>
<path d="M0 0 C0.66 0 1.32 0 2 0 C1.9278125 0.94359375 1.855625 1.8871875 1.78125 2.859375 C0.60422215 19.14159357 -0.01498635 34.81068783 7 50 C7.99 49.505 7.99 49.505 9 49 C8.505 51.475 8.505 51.475 8 54 C7.34 54 6.68 54 6 54 C-2.34837133 37.59989997 -3.3195518 17.95983961 0 0 Z " fill="#3F666D" transform="translate(556,169)"/>
<path d="M0 0 C5.63204085 2.95206006 10.8830566 6.20991192 16.0546875 9.90625 C20.39931617 12.99473934 24.80426678 15.99423002 29.20336914 19.00439453 C33.5051189 21.95419634 37.76410464 24.95630865 42 28 C41.67 28.66 41.34 29.32 41 30 C31.20048412 23.50922871 21.46603081 16.93248015 11.80224609 10.24121094 C10.13167268 9.09068327 8.45100511 7.95484988 6.76953125 6.8203125 C5.85558594 6.19898438 4.94164062 5.57765625 4 4.9375 C3.21625 4.41027344 2.4325 3.88304687 1.625 3.33984375 C1.08875 2.89769531 0.5525 2.45554687 0 2 C0 1.34 0 0.68 0 0 Z " fill="#40687A" transform="translate(719,283)"/>
<path d="M0 0 C-3.42214464 2.9023252 -7.20024567 4.40821294 -11.3125 6.0625 C-20.93338917 10.089978 -29.82858447 15.53679544 -37.73828125 22.36328125 C-38.48464844 22.90339844 -39.23101563 23.44351563 -40 24 C-40.99 23.67 -41.98 23.34 -43 23 C-32.52189501 14.37912526 -21.50788665 7.27875216 -9 2 C-8.29617188 1.63003906 -7.59234375 1.26007813 -6.8671875 0.87890625 C-4.49207129 -0.23908778 -2.5919428 -0.14399682 0 0 Z " fill="#406677" transform="translate(579,109)"/>
<path d="M0 0 C3 0 3 0 4.40234375 1.3984375 C4.90894531 2.05070313 5.41554688 2.70296875 5.9375 3.375 C14.29450304 13.21692507 24.39208812 19.73678509 35.49682617 26.06542969 C36.33834229 26.54915039 37.1798584 27.03287109 38.046875 27.53125 C38.80838867 27.95986328 39.56990234 28.38847656 40.35449219 28.83007812 C40.89750977 29.21615234 41.44052734 29.60222656 42 30 C42 30.66 42 31.32 42 32 C37.08898915 30.6129206 33.12529643 28.40747637 28.9375 25.5625 C28.28990723 25.12728027 27.64231445 24.69206055 26.97509766 24.24365234 C21.27097023 20.33380055 16.00161329 15.99930215 10.8046875 11.4453125 C8.99289868 9.86567489 7.14129622 8.33008925 5.24609375 6.8515625 C2.77476935 4.81433161 1.48592871 2.81544387 0 0 Z " fill="#406975" transform="translate(566,244)"/>
<path d="M0 0 C4.47591611 1.5457623 8.18418111 3.96960142 12.0625 6.625 C13.39308081 7.52626073 14.72381211 8.42729933 16.0546875 9.328125 C16.7156543 9.77736328 17.37662109 10.22660156 18.05761719 10.68945312 C19.86419591 11.9083715 21.68176568 13.10738371 23.5078125 14.296875 C24.55710937 14.98265625 25.60640625 15.6684375 26.6875 16.375 C27.61949219 16.98085938 28.55148437 17.58671875 29.51171875 18.2109375 C31.94244647 19.95861929 33.9522848 21.82280397 36 24 C32.42738863 24 31.42281799 23.19022869 28.5 21.21875 C27.17597168 20.33171387 27.17597168 20.33171387 25.82519531 19.42675781 C24.89288086 18.79092773 23.96056641 18.15509766 23 17.5 C22.05479492 16.8615918 21.10958984 16.22318359 20.13574219 15.56542969 C1.44708724 2.89417447 1.44708724 2.89417447 0 0 Z " fill="#002D37" transform="translate(515,481)"/>
<path d="M0 0 C4.76439677 0.95786894 8.03442213 3.53393496 11.9375 6.3125 C12.68443115 6.84069336 13.4313623 7.36888672 14.20092773 7.91308594 C21.33492351 13.0608131 27.72785454 18.84784341 34 25 C33.67 25.66 33.34 26.32 33 27 C31.2925002 25.71937515 29.62626404 24.38232443 28 23 C28 22.34 28 21.68 28 21 C27.41863281 20.73058594 26.83726562 20.46117187 26.23828125 20.18359375 C23.97936974 18.98909081 22.17434591 17.66530074 20.1875 16.0625 C15.19538427 12.10063635 10.05215881 8.36325724 4.87768555 4.64477539 C3.23450224 3.45333642 1.61476039 2.22968578 0 1 C0 0.67 0 0.34 0 0 Z " fill="#416876" transform="translate(783,327)"/>
<path d="M0 0 C23.74736842 17.24210526 23.74736842 17.24210526 27 27 C26.34 27.33 25.68 27.66 25 28 C23.84906075 26.5665848 22.70441965 25.12811091 21.5625 23.6875 C20.92441406 22.88699219 20.28632812 22.08648437 19.62890625 21.26171875 C18 19 18 19 17 16 C16.34 16 15.68 16 15 16 C13.31066078 14.3563186 11.64740076 12.6857124 10 11 C8.6078125 9.9171875 8.6078125 9.9171875 7.1875 8.8125 C6.465625 8.214375 5.74375 7.61625 5 7 C5 6.34 5 5.68 5 5 C4.360625 4.731875 3.72125 4.46375 3.0625 4.1875 C1 3 1 3 0 0 Z " fill="#013D46" transform="translate(757,376)"/>
<path d="M0 0 C5.136507 0.43694294 8.09217176 3.04583786 11.9375 6.1875 C12.53240234 6.65736328 13.12730469 7.12722656 13.74023438 7.61132812 C17.7652713 10.83575662 21.49301321 14.21459594 25 18 C25 18.66 25 19.32 25 20 C23.68 19.34 22.36 18.68 21 18 C21 17.34 21 16.68 21 16 C20.42765625 15.74863281 19.8553125 15.49726563 19.265625 15.23828125 C16.70380939 13.83811651 14.87497682 12.1863541 12.75 10.1875 C9.1853616 6.93617144 5.61078898 4.31224708 1.43359375 1.91015625 C0.96050781 1.60980469 0.48742187 1.30945313 0 1 C0 0.67 0 0.34 0 0 Z " fill="#00333D" transform="translate(574,354)"/>
<path d="M0 0 C6.23752339 2.74451029 11.51709226 6.37020363 16.98681641 10.38232422 C20.23986586 12.76631481 23.49644318 14.98759919 27 17 C26.67 17.66 26.34 18.32 26 19 C22.10332326 16.8893001 18.5139149 14.70406732 15 12 C12.4937526 10.07174376 10.01197865 8.35283425 7.25 6.8125 C4.6241689 5.34809419 2.25349011 3.9830713 0 2 C0 1.34 0 0.68 0 0 Z " fill="#45676E" transform="translate(653,239)"/>
<path d="M0 0 C0.66 0 1.32 0 2 0 C1.68993581 5.78786492 0.59903331 9.26956805 -2.66796875 14.04296875 C-3.95638618 15.93592222 -5.04368023 17.85848475 -6.125 19.875 C-8 23 -8 23 -11 25 C-10.43193677 21.13306357 -9.31637727 18.57318545 -7.1875 15.3125 C-4.12924838 10.41192812 -1.9609332 5.42140355 0 0 Z " fill="#002D34" transform="translate(725,535)"/>
<path d="M0 0 C3 1 3 1 3.94921875 2.85546875 C5.37868052 7.37075277 6.3692425 11.19984755 6 16 C4 13 4 13 3 9 C2.34 11.97 1.68 14.94 1 18 C-1.51005664 14.23491505 -1.0258295 11.60538391 -0.625 7.3125 C-0.56828125 6.61060547 -0.5115625 5.90871094 -0.453125 5.18554688 C-0.31195359 3.45619715 -0.15728041 1.72795912 0 0 Z " fill="#001F28" transform="translate(715,474)"/>
<path d="M0 0 C4.34242429 4.34242429 4.7444669 8.13551546 5 14 C5.66 14 6.32 14 7 14 C7.185625 12.8553125 7.185625 12.8553125 7.375 11.6875 C8 9 8 9 10 6 C11 8 11 8 10.29296875 10.34765625 C9.92816406 11.24355469 9.56335938 12.13945312 9.1875 13.0625 C8.83042969 13.96097656 8.47335937 14.85945313 8.10546875 15.78515625 C7 18 7 18 5 19 C4.15919981 16.58570231 3.32718598 14.16896007 2.5 11.75 C2.14228516 10.72712891 2.14228516 10.72712891 1.77734375 9.68359375 C0.60578713 6.23586997 0 3.68297096 0 0 Z " fill="#002931" transform="translate(633,385)"/>
<path d="M0 0 C0.66 0.33 1.32 0.66 2 1 C1.53851562 1.40347656 1.07703125 1.80695313 0.6015625 2.22265625 C-4.7535923 7.2073952 -8.67361464 12.67804382 -12.58544922 18.80688477 C-14.52470812 21.83887593 -16.39202417 24.52286689 -19 27 C-16.11727671 17.13728174 -9.27700019 8.17866235 -2 1 C-1.34 0.67 -0.68 0.34 0 0 Z " fill="#406771" transform="translate(575,121)"/>
<path d="M0 0 C0.33 0.99 0.66 1.98 1 3 C-0.6171875 5.8125 -0.6171875 5.8125 -2.875 9 C-5.91966743 13.25577676 -5.91966743 13.25577676 -8 18 C-8.66 18 -9.32 18 -10 18 C-10.66 19.98 -11.32 21.96 -12 24 C-12.7265625 22.39453125 -12.7265625 22.39453125 -13 20 C-11.5234375 17.01171875 -11.5234375 17.01171875 -9.375 13.6875 C-9.00761719 13.11298096 -8.64023437 12.53846191 -8.26171875 11.9465332 C-5.63463566 7.86936939 -2.89509657 3.89028602 0 0 Z " fill="#003037" transform="translate(451,182)"/>
<path d="M0 0 C0.33 0 0.66 0 1 0 C2.63910146 12.20439398 2.63910146 12.20439398 -1 18 C-1.78509747 20.31272688 -2.3848287 22.63395653 -3 25 C-3.66 24.67 -4.32 24.34 -5 24 C-3.35 16.08 -1.7 8.16 0 0 Z " fill="#09464C" transform="translate(806,483)"/>
<path d="M0 0 C4.01481489 0.64945535 7.12500659 2.73980009 10.5 4.875 C11.06847656 5.22691406 11.63695312 5.57882812 12.22265625 5.94140625 C18.51665379 9.8696785 18.51665379 9.8696785 21 12 C21 12.66 21 13.32 21 14 C5.459948 6.43493871 5.459948 6.43493871 0 0 Z " fill="#002935" transform="translate(705,378)"/>
<path d="M0 0 C0.66 0.33 1.32 0.66 2 1 C0.71631339 5.66795131 -1.27785116 9.21349867 -3.9765625 13.16796875 C-5.2438481 15.0867543 -5.2438481 15.0867543 -5 18 C-6.65 18.66 -8.3 19.32 -10 20 C-8.53524189 16.01055832 -6.62274587 12.51555575 -4.4375 8.875 C-2.64686939 5.88937474 -1.10117028 3.30351083 0 0 Z " fill="#0D4D52" transform="translate(792,529)"/>
<path d="M0 0 C0 3 0 3 -2.125 5.375 C-5.92613275 8.84559947 -9.70775894 12.13850596 -14 15 C-17.49151548 14.65084845 -20.0871055 12.86101593 -23 11 C-22.01 10.67 -21.02 10.34 -20 10 C-19.01 10.66 -18.02 11.32 -17 12 C-11.94696912 11.93974239 -9.1090052 8.76754333 -5.6875 5.4375 C-5.13771484 4.91736328 -4.58792969 4.39722656 -4.02148438 3.86132812 C-2.67269654 2.58291183 -1.33519564 1.29260567 0 0 Z " fill="#356370" transform="translate(606,314)"/>
<path d="M0 0 C4.43170173 1.51896368 8.03024076 3.92639809 11.8125 6.625 C12.40998047 7.04523438 13.00746094 7.46546875 13.62304688 7.8984375 C15.08520565 8.92779728 16.54304899 9.9632823 18 11 C17.62890625 13.41796875 17.62890625 13.41796875 17 16 C14.9375 17.3125 14.9375 17.3125 13 18 C13.66 17.01 14.32 16.02 15 15 C15.13525751 12.97437978 15.13525751 12.97437978 14 11 C11.31138425 8.86579985 11.31138425 8.86579985 8.0625 6.9375 C2.19661017 3.29491525 2.19661017 3.29491525 0 0 Z " fill="#416A72" transform="translate(840,202)"/>
<path d="M0 0 C0.64324219 0.4125 1.28648437 0.825 1.94921875 1.25 C9.25021673 5.91597303 16.61007309 10.4767538 24 15 C23.01 15.33 22.02 15.66 21 16 C18.6875 14.8125 18.6875 14.8125 16 13 C14.55173828 12.03900391 14.55173828 12.03900391 13.07421875 11.05859375 C12.05972656 10.37925781 11.04523437 9.69992187 10 9 C7.94085224 7.68224699 5.87851428 6.36946117 3.8125 5.0625 C2.20833333 4.04166667 0.60416667 3.02083333 -1 2 C-0.67 1.34 -0.34 0.68 0 0 Z " fill="#3D6A71" transform="translate(560,308)"/>
<path d="M0 0 C0.66 0.33 1.32 0.66 2 1 C1.43152344 1.65484375 0.86304688 2.3096875 0.27734375 2.984375 C-5.37589578 9.66633424 -9.81991682 16.29843196 -14 24 C-15 21 -15 21 -13.59375 18.14453125 C-9.49494658 11.62162208 -5.38168126 5.56667655 0 0 Z " fill="#466E7C" transform="translate(528,141)"/>
<path d="M0 0 C0.58523438 0.21011719 1.17046875 0.42023437 1.7734375 0.63671875 C-4.3978622 5.20805186 -12.23559158 10.63671875 -20.2265625 10.63671875 C-20.2265625 9.97671875 -20.2265625 9.31671875 -20.2265625 8.63671875 C-19.5975 8.40597656 -18.9684375 8.17523437 -18.3203125 7.9375 C-13.09058772 5.94484884 -8.55268656 3.78397046 -4.015625 0.4921875 C-2.2265625 -0.36328125 -2.2265625 -0.36328125 0 0 Z " fill="#00242B" transform="translate(690.2265625,528.36328125)"/>
<path d="M0 0 C0.99 0 1.98 0 3 0 C6.0476547 7.48060698 8.18794666 14.86046378 8 23 C7.34 23.33 6.68 23.66 6 24 C5.89042969 23.24976563 5.78085937 22.49953125 5.66796875 21.7265625 C3.94586933 10.54758625 3.94586933 10.54758625 0 0 Z " fill="#002630" transform="translate(723,473)"/>
<path d="M0 0 C2.06221807 0.26949441 4.04066102 0.65945295 6.0625 1.14453125 C7.0525 1.33015625 8.0425 1.51578125 9.0625 1.70703125 C10.0525 1.92359375 10.0525 1.92359375 11.0625 2.14453125 C11.0625 2.47453125 11.0625 2.80453125 11.0625 3.14453125 C4.99434478 4.37352471 -0.73645188 5.42013339 -6.9375 5.14453125 C-3.10291353 0.23146734 -3.10291353 0.23146734 0 0 Z " fill="#001D28" transform="translate(674.9375,588.85546875)"/>
<path d="M0 0 C0.66 0.33 1.32 0.66 2 1 C0.625 2.5 0.625 2.5 -1 4 C-1.66 4 -2.32 4 -3 4 C-3 4.66 -3 5.32 -3 6 C-5.97 7.65 -8.94 9.3 -12 11 C-12.66 10.34 -13.32 9.68 -14 9 C-10.55384615 3.21538462 -10.55384615 3.21538462 -7.75 2.125 C-7.1725 2.08375 -6.595 2.0425 -6 2 C-6 2.66 -6 3.32 -6 4 C-6.33 4.33 -6.66 4.66 -7 5 C-4.69 3.35 -2.38 1.7 0 0 Z " fill="#265E65" transform="translate(800,535)"/>
<path d="M0 0 C0.69921875 1.59765625 0.69921875 1.59765625 1 4 C-0.29296875 7.05859375 -0.29296875 7.05859375 -2.1875 10.4375 C-2.79980469 11.54996094 -3.41210938 12.66242187 -4.04296875 13.80859375 C-5.8468122 16.75019075 -7.77873144 19.36501402 -10 22 C-10.66 21.67 -11.32 21.34 -12 21 C-11.46890625 20.154375 -10.9378125 19.30875 -10.390625 18.4375 C-6.63514986 12.42004326 -3.02446526 6.42698868 0 0 Z " fill="#002D35" transform="translate(766,524)"/>
<path d="M0 0 C3.65609042 0.65073272 6.2181935 2.23673127 9.3125 4.25 C10.27414062 4.87519531 11.23578125 5.50039063 12.2265625 6.14453125 C15.53973395 8.36108961 18.78560589 10.64277766 22 13 C21.67 13.66 21.34 14.32 21 15 C19.26847042 13.92044741 17.53988316 12.83617488 15.8125 11.75 C14.84957031 11.14671875 13.88664063 10.5434375 12.89453125 9.921875 C10.12499958 8.08299567 7.58239927 6.08947509 5 4 C4.071875 3.443125 3.14375 2.88625 2.1875 2.3125 C1.465625 1.879375 0.74375 1.44625 0 1 C0 0.67 0 0.34 0 0 Z " fill="#436E73" transform="translate(692,266)"/>
<path d="M0 0 C7.11791847 3.81607036 14.11027102 7.78545863 21 12 C18.64445327 12.83563878 17.45655987 13.18119775 15.09301758 12.24316406 C14.45001709 11.83807617 13.8070166 11.43298828 13.14453125 11.015625 C12.44005859 10.57476563 11.73558594 10.13390625 11.00976562 9.6796875 C10.28466797 9.20789063 9.55957031 8.73609375 8.8125 8.25 C7.70745117 7.56550781 7.70745117 7.56550781 6.58007812 6.8671875 C1.13321088 3.39963264 1.13321088 3.39963264 0 0 Z " fill="#002B35" transform="translate(538,560)"/>
<path d="M0 0 C3.34853813 3.86369784 5.88779249 8.03093534 8.47265625 12.41796875 C10.5838434 15.98700892 12.79066345 19.49105372 15 23 C14.34 23.33 13.68 23.66 13 24 C11.58104292 21.81395715 10.16480208 19.62622986 8.75 17.4375 C8.15638672 16.52387695 8.15638672 16.52387695 7.55078125 15.59179688 C0 3.8942751 0 3.8942751 0 0 Z " fill="#014049" transform="translate(658,289)"/>
<path d="M0 0 C2.105868 2.105868 2.92752247 3.7365229 4.125 6.4375 C4.47820312 7.21996094 4.83140625 8.00242187 5.1953125 8.80859375 C6 11 6 11 6 14 C6.66 14 7.32 14 8 14 C11 19.75 11 19.75 11 22 C10.34 22 9.68 22 9 22 C4.20899067 15.68955628 1.41583707 8.47488411 -1 1 C-0.67 0.67 -0.34 0.34 0 0 Z " fill="#00232B" transform="translate(434,297)"/>
<path d="M0 0 C2 1 2 1 2.8515625 3.50390625 C3.10679687 4.51324219 3.36203125 5.52257812 3.625 6.5625 C3.88539063 7.57441406 4.14578125 8.58632813 4.4140625 9.62890625 C4.60742188 10.41136719 4.80078125 11.19382812 5 12 C4.01 12.495 4.01 12.495 3 13 C2.34 10.69 1.68 8.38 1 6 C0.34 6 -0.32 6 -1 6 C-1.33 8.64 -1.66 11.28 -2 14 C-4 11 -4 11 -3.57421875 8.5546875 C-3.28160156 7.67039062 -2.98898437 6.78609375 -2.6875 5.875 C-2.40261719 4.98554688 -2.11773438 4.09609375 -1.82421875 3.1796875 C-1 1 -1 1 0 0 Z " fill="#043D46" transform="translate(639,291)"/>
<path d="M0 0 C1.69946788 2.54920182 2.56531331 4.32099564 3.5078125 7.16015625 C3.77207031 7.95357422 4.03632812 8.74699219 4.30859375 9.56445312 C4.57800781 10.38880859 4.84742188 11.21316406 5.125 12.0625 C5.40214844 12.89072266 5.67929687 13.71894531 5.96484375 14.57226562 C8 20.73287408 8 20.73287408 8 23 C7.34 23 6.68 23 6 23 C4.98810676 20.29559485 3.99034309 17.58729099 3 14.875 C2.71382812 14.11445313 2.42765625 13.35390625 2.1328125 12.5703125 C0.55872706 8.22283843 -0.36023827 4.69810742 0 0 Z " fill="#024048" transform="translate(650,265)"/>
<path d="M0 0 C0.66 0.33 1.32 0.66 2 1 C1.45730469 1.85722656 0.91460938 2.71445313 0.35546875 3.59765625 C-0.3674461 4.75244232 -1.09008773 5.90739946 -1.8125 7.0625 C-2.16892578 7.62388672 -2.52535156 8.18527344 -2.89257812 8.76367188 C-5.35463667 12.71651816 -7.25584361 16.68087454 -9 21 C-9.66 20.67 -10.32 20.34 -11 20 C-9.66158536 15.5296951 -7.8780218 11.7603927 -5.5 7.75 C-4.8915625 6.71359375 -4.283125 5.6771875 -3.65625 4.609375 C-2 2 -2 2 0 0 Z " fill="#3F6580" transform="translate(577,174)"/>
<path d="M0 0 C-1 3 -1 3 -2.6875 4.1875 C-5.54045174 5.18988845 -7.99631021 5.06674866 -11 5 C-11.33 5.33 -11.66 5.66 -12 6 C-13.66617115 6.04063832 -15.33388095 6.042721 -17 6 C-17 5.34 -17 4.68 -17 4 C-14.73050898 3.32844651 -12.4596039 2.6626037 -10.1875 2 C-8.92292969 1.62875 -7.65835938 1.2575 -6.35546875 0.875 C-3 0 -3 0 0 0 Z " fill="#436C75" transform="translate(597,103)"/>
<path d="M0 0 C3.40510369 1.52914379 6.10165188 3.53334679 9 5.875 C9.845625 6.55304688 10.69125 7.23109375 11.5625 7.9296875 C13.83098769 9.85644788 15.93028065 11.86320641 18 14 C13.65825365 13.12258212 10.74101065 10.805541 7.3125 8.125 C6.42208008 7.45404297 6.42208008 7.45404297 5.51367188 6.76953125 C1.12576005 3.37728015 1.12576005 3.37728015 0 0 Z " fill="#003841" transform="translate(686,327)"/>
<path d="M0 0 C6.12415343 3.84282322 12.16865561 7.72368078 18 12 C17.67 12.66 17.34 13.32 17 14 C14.72609813 12.56717148 12.45589859 11.12899467 10.1875 9.6875 C9.54490234 9.28337891 8.90230469 8.87925781 8.24023438 8.46289062 C7.61826172 8.06650391 6.99628906 7.67011719 6.35546875 7.26171875 C5.78465576 6.90037842 5.21384277 6.53903809 4.62573242 6.16674805 C2.87144026 4.90773584 1.41759138 3.63002891 0 2 C0 1.34 0 0.68 0 0 Z " fill="#003037" transform="translate(538,328)"/>
<path d="M0 0 C6.94485303 -0.48452463 13.2990368 1.30712509 20 3 C18.03561669 4.46800688 16.53263574 5.03217444 14.07617188 4.88378906 C11.78558931 4.52249521 9.52135643 4.09207827 7.25 3.625 C6.06083984 3.39683594 6.06083984 3.39683594 4.84765625 3.1640625 C2.8961215 2.78786303 0.94771562 2.39549684 -1 2 C-0.67 1.34 -0.34 0.68 0 0 Z " fill="#305D65" transform="translate(648,152)"/>
<path d="M0 0 C0.66 0.33 1.32 0.66 2 1 C-8.37357631 11.74259681 -8.37357631 11.74259681 -14 15 C-14.66 14.67 -15.32 14.34 -16 14 C-15.33613281 13.48050781 -14.67226563 12.96101562 -13.98828125 12.42578125 C-9.41225225 8.81172039 -4.99440645 5.2521101 -1 1 C-0.67 0.67 -0.34 0.34 0 0 Z " fill="#406A71" transform="translate(819,519)"/>
<path d="M0 0 C0.66 0 1.32 0 2 0 C3.36680153 2.26404542 4.71844445 4.53501021 6.0625 6.8125 C6.45244141 7.45509766 6.84238281 8.09769531 7.24414062 8.75976562 C8.24130759 10.4628915 9.12812687 12.22945858 10 14 C9.67 14.99 9.34 15.98 9 17 C7.68085608 14.92062051 6.36961787 12.83691981 5.0625 10.75 C4.68931641 10.16347656 4.31613281 9.57695312 3.93164062 8.97265625 C2.1034339 6.04093735 0.53724618 3.44519771 0 0 Z " fill="#00363C" transform="translate(482,271)"/>
<path d="M0 0 C5.46481812 1.29429903 9.36633408 4.18970711 13.828125 7.44140625 C15.90427718 9.01803168 15.90427718 9.01803168 18 10 C18 10.66 18 11.32 18 12 C13.58883965 10.4797696 9.97050368 8.10711129 6.1875 5.4375 C5.2912793 4.8197168 5.2912793 4.8197168 4.37695312 4.18945312 C2.8968441 3.15591414 1.44546837 2.08145584 0 1 C0 0.67 0 0.34 0 0 Z " fill="#3C626A" transform="translate(793,170)"/>
<path d="M0 0 C5.82923987 2.65895152 10.32891147 5.6208545 15 10 C10.9883804 10 8.57906142 8.09512932 5.3125 6 C4.70599609 5.6184375 4.09949219 5.236875 3.47460938 4.84375 C1.97928801 3.90181528 0.48913407 2.95168625 -1 2 C-0.67 1.34 -0.34 0.68 0 0 Z " fill="#00353E" transform="translate(735,361)"/>
<path d="M0 0 C3.79379058 1.49041773 5.68343758 3.69062512 8 7 C8 7.66 8 8.32 8 9 C9.32 9.66 10.64 10.32 12 11 C12 11.66 12 12.32 12 13 C8.38522825 11.50198648 6.31379537 9.42462583 3.75 6.5 C3.04359375 5.7059375 2.3371875 4.911875 1.609375 4.09375 C0 2 0 2 0 0 Z " fill="#014353" transform="translate(673,313)"/>
<path d="M0 0 C1.77108948 1.12459671 3.54186236 2.24969203 5.3125 3.375 C6.29863281 4.00148437 7.28476562 4.62796875 8.30078125 5.2734375 C10.21287929 6.49651613 12.1114034 7.7409356 14 9 C14 9.66 14 10.32 14 11 C11.31363803 10.02992484 9.15421596 9.11792985 6.875 7.375 C4.9843199 5.70431817 4.9843199 5.70431817 2 6 C1.34 4.02 0.68 2.04 0 0 Z " fill="#3F6170" transform="translate(820,187)"/>
<path d="M0 0 C0.73605469 0.47050781 1.47210937 0.94101563 2.23046875 1.42578125 C3.20628906 2.04839844 4.18210937 2.67101562 5.1875 3.3125 C6.15042969 3.92738281 7.11335937 4.54226562 8.10546875 5.17578125 C9.99540706 6.36687597 11.91472804 7.51289662 13.86328125 8.60546875 C14.56839844 9.06566406 15.27351562 9.52585938 16 10 C16 10.66 16 11.32 16 12 C12.19277076 10.62364555 9.07005662 8.87361726 5.75 6.5625 C4.87859375 5.96566406 4.0071875 5.36882812 3.109375 4.75390625 C1 3 1 3 0 0 Z " fill="#3C6178" transform="translate(752,141)"/>
<path d="M0 0 C0.99 0.33 1.98 0.66 3 1 C-2.79966044 11.69609508 -2.79966044 11.69609508 -6 16 C-6.66 16 -7.32 16 -8 16 C-6.68464431 12.39234967 -5.08036562 9.45008538 -2.875 6.3125 C-0.63673812 3.41832911 -0.63673812 3.41832911 0 0 Z " fill="#033D46" transform="translate(494,146)"/>
<path d="M0 0 C3.12777365 1.56388683 3.67121756 3.82247677 5 7 C5.50966514 9.67814608 5.76524946 12.27689379 6 15 C2.83722728 13.41861364 2.56906311 10.67403949 1.375 7.4375 C0.92898438 6.23996094 0.48296875 5.04242188 0.0234375 3.80859375 C-0.31429687 2.88175781 -0.65203125 1.95492188 -1 1 C-0.67 0.67 -0.34 0.34 0 0 Z " fill="#033B46" transform="translate(795,422)"/>
<path d="M0 0 C0.66 0 1.32 0 2 0 C3.49926962 2.09956889 4.85646023 4.1728609 6.1875 6.375 C6.56841797 6.97828125 6.94933594 7.5815625 7.34179688 8.203125 C8.29629694 9.76219952 9.15590022 11.37849474 10 13 C9.67 13.66 9.34 14.32 9 15 C0 3.26213592 0 3.26213592 0 0 Z " fill="#426A72" transform="translate(556,228)"/>
<path d="M0 0 C0 0.66 0 1.32 0 2 C-2.3359375 3.7265625 -2.3359375 3.7265625 -5.375 5.625 C-6.37273437 6.25664062 -7.37046875 6.88828125 -8.3984375 7.5390625 C-11 9 -11 9 -13 9 C-13 8.34 -13 7.68 -13 7 C-10.91796875 5.2734375 -10.91796875 5.2734375 -8.1875 3.375 C-6.84751953 2.42753906 -6.84751953 2.42753906 -5.48046875 1.4609375 C-3 0 -3 0 0 0 Z " fill="#00343A" transform="translate(486,153)"/>
<path d="M0 0 C1.32 0.66 2.64 1.32 4 2 C0.42245507 4.2096601 -3.22194036 6.15490111 -7 8 C-7.33 7.34 -7.66 6.68 -8 6 C-7.236875 5.566875 -6.47375 5.13375 -5.6875 4.6875 C-3.41906232 3.26313215 -1.7800277 1.96739903 0 0 Z " fill="#28525B" transform="translate(599,102)"/>
<path d="M0 0 C0.33 0 0.66 0 1 0 C1.144375 0.7425 1.28875 1.485 1.4375 2.25 C1.90050901 4.90296506 1.90050901 4.90296506 2.75 6.9375 C3.140526 10.15933947 1.55863615 12.25680038 0 15 C-0.66 15 -1.32 15 -2 15 C-1.34 10.05 -0.68 5.1 0 0 Z " fill="#426C7D" transform="translate(618,285)"/>
<path d="M0 0 C0.99 0.33 1.98 0.66 3 1 C1.37660195 2.70884005 -0.29319053 4.37446717 -2 6 C-2.66 6 -3.32 6 -4 6 C-4.33 6.66 -4.66 7.32 -5 8 C-5.66 7.34 -6.32 6.68 -7 6 C-5.90716423 4.96704564 -4.80029421 3.94892165 -3.6875 2.9375 C-3.07261719 2.36902344 -2.45773437 1.80054688 -1.82421875 1.21484375 C-0.92123047 0.61349609 -0.92123047 0.61349609 0 0 Z " fill="#013640" transform="translate(470,163)"/>
<path d="M0 0 C0.66 0 1.32 0 2 0 C3.43581474 1.61457079 4.80144783 3.29219075 6.125 5 C6.84945313 5.928125 7.57390625 6.85625 8.3203125 7.8125 C8.87460937 8.534375 9.42890625 9.25625 10 10 C9.67 10.66 9.34 11.32 9 12 C5.74483572 8.83525695 2.67991207 5.67247209 0 2 C0 1.34 0 0.68 0 0 Z " fill="#00313A" transform="translate(493,289)"/>
<path d="M0 0 C2.96175123 0.61277612 4.38058783 1.25372522 7 3 C7 3.66 7 4.32 7 5 C4.525 4.01 4.525 4.01 2 3 C2.33 4.32 2.66 5.64 3 7 C2.01 7.33 1.02 7.66 0 8 C0 5.36 0 2.72 0 0 Z " fill="#326168" transform="translate(646,235)"/>
<path d="M0 0 C3.49844386 0.63389235 5.84086876 2.05177694 8.75 4.0625 C9.94882812 4.88427734 9.94882812 4.88427734 11.171875 5.72265625 C12.07679688 6.35494141 12.07679688 6.35494141 13 7 C12.67 7.66 12.34 8.32 12 9 C10.18381144 7.88096454 8.37214474 6.75458716 6.5625 5.625 C5.55316406 4.99851562 4.54382813 4.37203125 3.50390625 3.7265625 C1 2 1 2 0 0 Z " fill="#41666E" transform="translate(723,123)"/>
<path d="M0 0 C0.66 0.33 1.32 0.66 2 1 C-2 5 -6 9 -10 13 C-9.40912862 9.39811284 -7.98667144 7.49874402 -5.5625 4.8125 C-4.94503906 4.11769531 -4.32757812 3.42289062 -3.69140625 2.70703125 C-2 1 -2 1 0 0 Z " fill="#46707C" transform="translate(575,121)"/>
<path d="M0 0 C1.98535806 1.09299501 3.96313943 2.19976236 5.9375 3.3125 C7.03964844 3.92738281 8.14179688 4.54226563 9.27734375 5.17578125 C12 7 12 7 13 10 C8.03231242 8.44759763 3.82132943 5.48945219 0 2 C0 1.34 0 0.68 0 0 Z " fill="#002F3C" transform="translate(461,508)"/>
<path d="M0 0 C4.28477792 2.30718811 7.72291137 4.32966073 11 8 C7.36804504 8 6.25286089 7.04546845 3.3125 5 C2.50425781 4.443125 1.69601562 3.88625 0.86328125 3.3125 C0.24839844 2.879375 -0.36648438 2.44625 -1 2 C-0.67 1.34 -0.34 0.68 0 0 Z " fill="#001E25" transform="translate(669,417)"/>
<path d="M0 0 C3.66060821 0.58536753 5.54535164 2.083239 8.25 4.5625 C8.95640625 5.20316406 9.6628125 5.84382813 10.390625 6.50390625 C10.92171875 6.99761719 11.4528125 7.49132812 12 8 C8.21516391 8 7.22592069 6.89417485 4.3125 4.5625 C3.50425781 3.92441406 2.69601562 3.28632813 1.86328125 2.62890625 C1.24839844 2.09136719 0.63351562 1.55382812 0 1 C0 0.67 0 0.34 0 0 Z " fill="#00343E" transform="translate(727,393)"/>
<path d="M0 0 C0.680625 0.70125 1.36125 1.4025 2.0625 2.125 C5.20780513 5.27934337 8.5888386 8.13934304 12 11 C11.01 11.33 10.02 11.66 9 12 C5.7 8.7 2.4 5.4 -1 2 C-0.67 1.34 -0.34 0.68 0 0 Z " fill="#002734" transform="translate(457,335)"/>
<path d="M0 0 C3.51175807 0.65032557 6.20618254 1.74942483 9 4 C9.3125 7.1875 9.3125 7.1875 9 10 C8.34 10 7.68 10 7 10 C6.938125 8.88625 6.938125 8.88625 6.875 7.75 C5.65352297 3.91107218 3.36994109 3.00762448 0 1 C0 0.67 0 0.34 0 0 Z " fill="#3B6386" transform="translate(614,279)"/>
<path d="M0 0 C0.66 0 1.32 0 2 0 C3.28006797 1.78398614 4.47660351 3.62853906 5.625 5.5 C6.57246094 7.03140625 6.57246094 7.03140625 7.5390625 8.59375 C8.02117188 9.3878125 8.50328125 10.181875 9 11 C8.01 11 7.02 11 6 11 C4.39453125 9.1015625 4.39453125 9.1015625 2.8125 6.625 C2.01779297 5.40683594 2.01779297 5.40683594 1.20703125 4.1640625 C0 2 0 2 0 0 Z " fill="#3D6172" transform="translate(826,364)"/>
<path d="M0 0 C3.68646141 1.45855647 5.16143971 3.30229045 7.25 6.625 C8.03117188 7.85089844 8.03117188 7.85089844 8.828125 9.1015625 C9.21484375 9.72804688 9.6015625 10.35453125 10 11 C9.01 11 8.02 11 7 11 C5.17578125 8.59375 5.17578125 8.59375 3.3125 5.5 C2.37857422 3.96859375 2.37857422 3.96859375 1.42578125 2.40625 C0.95527344 1.6121875 0.48476563 0.818125 0 0 Z " fill="#335887" transform="translate(521,272)"/>
<path d="M0 0 C0.66 0.66 1.32 1.32 2 2 C-0.66666667 4.66666667 -3.33333333 7.33333333 -6 10 C-6.99 9.67 -7.98 9.34 -9 9 C-6.03 6.03 -3.06 3.06 0 0 Z " fill="#00373F" transform="translate(678,373)"/>
<path d="M0 0 C3.63 2.31 7.26 4.62 11 7 C10.34 7.66 9.68 8.32 9 9 C7.68103535 8.07161713 6.37001311 7.13194268 5.0625 6.1875 C4.33160156 5.66542969 3.60070312 5.14335937 2.84765625 4.60546875 C1 3 1 3 0 0 Z " fill="#003034" transform="translate(521,316)"/>
<path d="M0 0 C0.66 0 1.32 0 2 0 C2.99 1.98 3.98 3.96 5 6 C5.66 5.67 6.32 5.34 7 5 C6.67 6.65 6.34 8.3 6 10 C5.34 10 4.68 10 4 10 C3.3310968 8.52184338 2.66493641 7.04244528 2 5.5625 C1.62875 4.73878906 1.2575 3.91507813 0.875 3.06640625 C0 1 0 1 0 0 Z " fill="#3C5F70" transform="translate(558,213)"/>
<path d="M0 0 C0.93423645 3.01031744 1.04449911 3.86650268 0 7 C-0.66 7 -1.32 7 -2 7 C-2.66 8.98 -3.32 10.96 -4 13 C-5.0169313 10.34501768 -5.13022151 9.30844625 -4.00390625 6.640625 C-3.52824219 5.85171875 -3.05257813 5.0628125 -2.5625 4.25 C-2.08941406 3.45078125 -1.61632812 2.6515625 -1.12890625 1.828125 C-0.75636719 1.22484375 -0.38382812 0.6215625 0 0 Z " fill="#00161B" transform="translate(443,193)"/>
<path d="M0 0 C0.99 0 1.98 0 3 0 C4.640625 1.64453125 4.640625 1.64453125 6.25 3.8125 C6.79140625 4.52019531 7.3328125 5.22789062 7.890625 5.95703125 C8.25671875 6.63121094 8.6228125 7.30539062 9 8 C8.67 8.99 8.34 9.98 8 11 C6.66375099 9.35653302 5.33107149 7.71016314 4 6.0625 C3.2575 5.14597656 2.515 4.22945313 1.75 3.28515625 C0 1 0 1 0 0 Z " fill="#00343D" transform="translate(599,375)"/>
<path d="M0 0 C0.33 0.99 0.66 1.98 1 3 C-5.625 6.875 -5.625 6.875 -9 8 C-7.82255415 4.46766245 -7.04394359 4.13691925 -3.9375 2.3125 C-3.20402344 1.87550781 -2.47054687 1.43851562 -1.71484375 0.98828125 C-1.14894531 0.66214844 -0.58304688 0.33601563 0 0 Z " fill="#002027" transform="translate(688,366)"/>
<path d="M0 0 C5.15464734 0.48324819 8.81550319 3.18610761 13 6 C10 7 10 7 7.51953125 5.8203125 C6.62621094 5.26085937 5.73289062 4.70140625 4.8125 4.125 C3.91144531 3.57070313 3.01039063 3.01640625 2.08203125 2.4453125 C1.39496094 1.96835937 0.70789063 1.49140625 0 1 C0 0.67 0 0.34 0 0 Z " fill="#48717C" transform="translate(571,317)"/>
<path d="M0 0 C1.46555316 0.73579212 2.92224487 1.48925126 4.375 2.25 C5.18710937 2.66765625 5.99921875 3.0853125 6.8359375 3.515625 C9.20801205 5.14267975 9.97094804 6.35386639 11 9 C9.34793553 8.07352464 7.7035003 7.13343426 6.0625 6.1875 C5.14597656 5.66542969 4.22945312 5.14335937 3.28515625 4.60546875 C1 3 1 3 0 0 Z " fill="#3A6376" transform="translate(719,283)"/>
<path d="M0 0 C4.75481646 0.57634139 7.97048212 2.55068521 12 5 C12 5.66 12 6.32 12 7 C7.39104317 5.68315519 3.85859765 3.84801255 0 1 C0 0.67 0 0.34 0 0 Z " fill="#2E545A" transform="translate(596,269)"/>
<path d="M0 0 C-2.85021875 2.32240046 -5.46355091 3.93906527 -9 5 C-11.15625 4.546875 -11.15625 4.546875 -13 4 C-4.738041 -0.59225513 -4.738041 -0.59225513 0 0 Z " fill="#39626A" transform="translate(579,109)"/>
<path d="M0 0 C0.68707555 2.49064888 1 4.37886292 1 7 C-0.65 7.66 -2.3 8.32 -4 9 C-2.80100302 5.9168649 -1.52299523 2.93720508 0 0 Z " fill="#09454A" transform="translate(786,540)"/>
<path d="M0 0 C4.55015893 1.51671964 6.50057264 5.16891053 9 9 C8.01 9 7.02 9 6 9 C4.39453125 7.28515625 4.39453125 7.28515625 2.8125 5.0625 C2.28269531 4.33160156 1.75289062 3.60070312 1.20703125 2.84765625 C0 1 0 1 0 0 Z " fill="#4E707A" transform="translate(818,355)"/>
<path d="M0 0 C2.18994248 3.28491373 2.35277339 4.83095639 2.625 8.6875 C2.69976563 9.68136719 2.77453125 10.67523438 2.8515625 11.69921875 C2.92503906 12.83810547 2.92503906 12.83810547 3 14 C2.34 13.67 1.68 13.34 1 13 C0.33203125 10.8203125 0.33203125 10.8203125 -0.1875 8.125 C-0.45626953 6.79855469 -0.45626953 6.79855469 -0.73046875 5.4453125 C-1 3 -1 3 0 0 Z " fill="#01414A" transform="translate(647,250)"/>
<path d="M0 0 C-1.26239712 0.86658615 -2.53527501 1.71792059 -3.8125 2.5625 C-4.87404297 3.27599609 -4.87404297 3.27599609 -5.95703125 4.00390625 C-8 5 -8 5 -11 4 C-9.73760288 3.13341385 -8.46472499 2.28207941 -7.1875 1.4375 C-6.47980469 0.96183594 -5.77210938 0.48617187 -5.04296875 -0.00390625 C-3 -1 -3 -1 0 0 Z " fill="#002228" transform="translate(732,571)"/>
<path d="M0 0 C2.97 1.65 5.94 3.3 9 5 C9 5.99 9 6.98 9 8 C7.49460339 7.05016642 5.99579653 6.08988109 4.5 5.125 C3.6646875 4.59132813 2.829375 4.05765625 1.96875 3.5078125 C1.3190625 3.01023437 0.669375 2.51265625 0 2 C0 1.34 0 0.68 0 0 Z " fill="#001C26" transform="translate(474,517)"/>
<path d="M0 0 C1.1875 1.5 1.1875 1.5 2 4 C1.27101296 6.78824238 0.1843275 9.37665092 -1 12 C-2.36088895 7.91733314 -1.68398693 5.24071899 -1 1 C-0.67 0.67 -0.34 0.34 0 0 Z " fill="#002C31" transform="translate(721,516)"/>
<path d="M0 0 C0.66 0 1.32 0 2 0 C0.6062718 4.43458973 -1.60582235 6.87378374 -5 10 C-5.66 9.67 -6.32 9.34 -7 9 C-5.88266271 7.49428343 -4.75589965 5.99555708 -3.625 4.5 C-2.99851562 3.6646875 -2.37203125 2.829375 -1.7265625 1.96875 C-1.15679688 1.3190625 -0.58703125 0.669375 0 0 Z " fill="#436D75" transform="translate(829,506)"/>
<path d="M0 0 C4.5076467 0.53031138 7.41954788 2.25221116 11 5 C11 5.66 11 6.32 11 7 C7.22272911 5.18690997 3.62730178 3.0926741 0 1 C0 0.67 0 0.34 0 0 Z " fill="#00343A" transform="translate(433,491)"/>
<path d="M0 0 C3.36179774 1.44077046 5.59156268 3.24750021 8 6 C8 6.66 8 7.32 8 8 C6.68 7.34 5.36 6.68 4 6 C4 5.34 4 4.68 4 4 C2.68 3.34 1.36 2.68 0 2 C0 1.34 0 0.68 0 0 Z " fill="#003A47" transform="translate(591,366)"/>
<path d="M0 0 C0.47050781 0.40992188 0.94101562 0.81984375 1.42578125 1.2421875 C2.04839844 1.78101563 2.67101562 2.31984375 3.3125 2.875 C4.23482422 3.67550781 4.23482422 3.67550781 5.17578125 4.4921875 C7.13498212 6.1640447 7.13498212 6.1640447 10 8 C10 8.66 10 9.32 10 10 C5.86360664 8.40907948 2.76786752 5.39525082 0 2 C0 1.34 0 0.68 0 0 Z " fill="#416975" transform="translate(534,287)"/>
<path d="M0 0 C3.3 1.98 6.6 3.96 10 6 C9.67 6.66 9.34 7.32 9 8 C2.25 4.5 2.25 4.5 0 0 Z " fill="#446A80" transform="translate(670,250)"/>
<path d="M0 0 C3.99500618 1.3697164 6.80009492 3.25722422 10 6 C9.67 6.66 9.34 7.32 9 8 C7.49460339 7.05016642 5.99579653 6.08988109 4.5 5.125 C3.6646875 4.59132812 2.829375 4.05765625 1.96875 3.5078125 C1.3190625 3.01023438 0.669375 2.51265625 0 2 C0 1.34 0 0.68 0 0 Z " fill="#466E76" transform="translate(722,185)"/>
<path d="M0 0 C0.66 0.33 1.32 0.66 2 1 C-1.96 4.465 -1.96 4.465 -6 8 C-6.33 7.01 -6.66 6.02 -7 5 C-4.69 3.35 -2.38 1.7 0 0 Z " fill="#002E36" transform="translate(693,569)"/>
<path d="M0 0 C3.28788824 3.11016455 5.83735988 6.01618925 8 10 C3.44984107 8.48328036 1.49942736 4.83108947 -1 1 C-0.67 0.67 -0.34 0.34 0 0 Z " fill="#003036" transform="translate(709,448)"/>
<path d="M0 0 C3.12270126 2.51830747 3.94523098 3.7261549 4.75 7.75 C4.8325 8.8225 4.915 9.895 5 11 C2.03947516 7.63576723 1.07710178 4.30840713 0 0 Z " fill="#002932" transform="translate(762,433)"/>
<path d="M0 0 C0.66 0 1.32 0 2 0 C2.1875 2.375 2.1875 2.375 2 5 C1.01 5.66 0.02 6.32 -1 7 C-1.66 6.67 -2.32 6.34 -3 6 C-2 4 -1 2 0 0 Z " fill="#0B565D" transform="translate(660,284)"/>
<path d="M0 0 C3.02419525 0.58803797 6.01758453 1.22678118 9 2 C9 2.99 9 3.98 9 5 C4.68607774 4.5206753 2.83430453 3.2542015 0 0 Z " fill="#002A32" transform="translate(623,454)"/>
<path d="M0 0 C2 3 2 3 2 5 C1.34 5 0.68 5 0 5 C-0.33 5.99 -0.66 6.98 -1 8 C-1.66 5.69 -2.32 3.38 -3 1 C-2.01 0.67 -1.02 0.34 0 0 Z " fill="#06555B" transform="translate(622,409)"/>
<path d="M0 0 C3.99455527 0.61454696 6.74466336 2.70646737 10 5 C9.67 5.66 9.34 6.32 9 7 C7.4972763 6.02501855 5.99788037 5.04490611 4.5 4.0625 C3.6646875 3.51722656 2.829375 2.97195313 1.96875 2.41015625 C1.3190625 1.94480469 0.669375 1.47945313 0 1 C0 0.67 0 0.34 0 0 Z " fill="#3B6568" transform="translate(704,274)"/>
<path d="M0 0 C0.66 0.33 1.32 0.66 2 1 C-0.475 5.455 -0.475 5.455 -3 10 C-4 6 -4 6 -2.0625 2.75 C-1.381875 1.8425 -0.70125 0.935 0 0 Z " fill="#406679" transform="translate(569,139)"/>
<path d="M0 0 C0.66 0.66 1.32 1.32 2 2 C0.35 4.31 -1.3 6.62 -3 9 C-3.33 8.01 -3.66 7.02 -4 6 C-2.0625 2.8125 -2.0625 2.8125 0 0 Z " fill="#002F3D" transform="translate(707,552)"/>
<path d="M0 0 C2 2 2 2 2.125 5.125 C2.08375 6.07375 2.0425 7.0225 2 8 C1.01 8 0.02 8 -1 8 C-0.67 5.36 -0.34 2.72 0 0 Z " fill="#02393F" transform="translate(714,490)"/>
<path d="M0 0 C2.35953094 2.35953094 2.49141413 3.77895617 3 7 C1.68 7.99 0.36 8.98 -1 10 C-0.67 6.7 -0.34 3.4 0 0 Z " fill="#043F46" transform="translate(717,481)"/>
<path d="M0 0 C4.24822374 0.47202486 6.19989709 2.96655518 9 6 C4.58763974 6 3.21615077 3.9302707 0 1 C0 0.67 0 0.34 0 0 Z " fill="#00343B" transform="translate(689,432)"/>
<path d="M0 0 C4.83256305 0.41421969 6.82679218 2.46413986 10 6 C6.00499382 4.6302836 3.19990508 2.74277578 0 0 Z " fill="#002932" transform="translate(486,362)"/>
<path d="M0 0 C0.66 0 1.32 0 2 0 C0.90931332 3.77545388 0.0916909 6.47043472 -3 9 C-2.44271087 5.65626525 -1.64826111 2.96687001 0 0 Z " fill="#00262C" transform="translate(633,307)"/>
<path d="M0 0 C3.79588866 0.54226981 5.47211993 2.20127563 8 5 C7.67 5.66 7.34 6.32 7 7 C5.83040013 6.02433888 4.66438823 5.044375 3.5 4.0625 C2.8503125 3.51722656 2.200625 2.97195313 1.53125 2.41015625 C1.0259375 1.94480469 0.520625 1.47945313 0 1 C0 0.67 0 0.34 0 0 Z " fill="#003840" transform="translate(507,306)"/>
<path d="M0 0 C0.66 0.66 1.32 1.32 2 2 C0.35 4.31 -1.3 6.62 -3 9 C-3.66 8.67 -4.32 8.34 -5 8 C-3.35 5.36 -1.7 2.72 0 0 Z " fill="#396277" transform="translate(614,302)"/>
<path d="M0 0 C1.32 0.66 2.64 1.32 4 2 C2.74458443 4.51083114 1.49936512 4.87125446 -1 6 C-1.042721 4.33388095 -1.04063832 2.66617115 -1 1 C-0.67 0.67 -0.34 0.34 0 0 Z " fill="#1A565E" transform="translate(647,242)"/>
<path d="M0 0 C2.97 1.65 5.94 3.3 9 5 C8.34 5.66 7.68 6.32 7 7 C1.125 3.375 1.125 3.375 0 0 Z " fill="#3E6775" transform="translate(777,158)"/>
<path d="M0 0 C3.82097239 0.53069061 6.06171403 1.49701566 9 4 C8.67 4.66 8.34 5.32 8 6 C6.66402348 5.19185349 5.331275 4.37836819 4 3.5625 C3.2575 3.11003906 2.515 2.65757812 1.75 2.19140625 C1.1725 1.79824219 0.595 1.40507812 0 1 C0 0.67 0 0.34 0 0 Z " fill="#003236" transform="translate(551,506)"/>
<path d="M0 0 C3.96 1.98 3.96 1.98 8 4 C7.34 4.66 6.68 5.32 6 6 C2.535 4.02 2.535 4.02 -1 2 C-0.67 1.34 -0.34 0.68 0 0 Z " fill="#003D4B" transform="translate(735,361)"/>
<path d="M0 0 C0.66 0 1.32 0 2 0 C2 0.99 2 1.98 2 3 C-1.33333333 6 -1.33333333 6 -4 6 C-2.84826645 3.53199953 -1.95216435 1.95216435 0 0 Z " fill="#00262B" transform="translate(619,329)"/>
<path d="M0 0 C0.99 0.33 1.98 0.66 3 1 C0.1875 3.0625 0.1875 3.0625 -3 5 C-3.99 4.67 -4.98 4.34 -6 4 C-3.1875 1.9375 -3.1875 1.9375 0 0 Z " fill="#406B74" transform="translate(594,161)"/>
<path d="M0 0 C0.66 0.33 1.32 0.66 2 1 C0.02 3.97 0.02 3.97 -2 7 C-2.66 6.34 -3.32 5.68 -4 5 C-2.25 1.125 -2.25 1.125 0 0 Z " fill="#16515B" transform="translate(493,147)"/>
<path d="M0 0 C0.33 0.99 0.66 1.98 1 3 C-0.40445835 5.2636564 -2.1967913 7.0208685 -4 9 C-4.33 8.01 -4.66 7.02 -5 6 C-3.59554165 3.7363436 -1.8032087 1.9791315 0 0 Z " fill="#49717B" transform="translate(577,129)"/>
<path d="" fill="#000000" transform="translate(0,0)"/>
<path d="" fill="#000000" transform="translate(0,0)"/>
</svg>
